<svg xmlns="http://www.w3.org/2000/svg" width="1731" height="909" viewBox="0 0 1731 909">
<title>LeadDrop - no background vector trace</title>
  <path fill="#FFD400" fill-opacity="0.18" fill-rule="evenodd" d="M1532 866L1532 868L1535 868L1535 866ZM1524 866L1524 868L1526 868L1526 866ZM1475 867L1478 868L1477 866ZM1467 866L1467 868L1470 868ZM1458 866L1461 868L1461 866ZM1549 865L1549 867L1552 867L1552 865ZM1450 866L1453 867L1452 865ZM1445 865L1443 865L1443 867ZM1565 865L1568 866L1568 864ZM1428 864L1428 866L1431 865ZM1573 864L1576 865L1576 863ZM1424 864L1422 863L1421 865ZM1406 862L1407 864L1409 863ZM1392 861L1395 862L1394 860ZM1609 859L1606 861L1609 861ZM1388 860L1386 859L1385 861ZM1614 859L1617 860L1617 858ZM1377 858L1377 860L1380 859ZM1622 858L1625 859L1625 857ZM1369 857L1370 859L1372 858ZM1633 856L1630 857L1632 858ZM1361 856L1362 858L1364 857ZM1354 854L1355 857L1356 855ZM1347 853L1347 855L1349 855ZM1653 852L1650 853L1652 854ZM1661 850L1658 852L1661 852ZM1332 850L1333 852L1335 851ZM1669 848L1667 850L1669 850ZM1324 849L1327 850L1326 848ZM1686 844L1683 845L1685 846ZM1289 839L1295 841L1294 839ZM1711 835L1708 838L1711 837ZM1719 833L1717 832L1716 834ZM1726 829L1724 829L1724 831ZM1267 828L1268 831L1269 829ZM266 829L275 830L274 828ZM0 828L0 830L3 829ZM1258 825L1261 826L1260 824ZM1245 813L1244 815L1247 816ZM1236 799L1237 802L1238 800ZM1238 791L1236 791L1236 793ZM1241 783L1240 786L1242 785ZM1494 770L1489 774L1488 782L1494 788L1501 788L1506 783L1506 775L1501 770ZM319 770L320 772L327 771ZM301 771L309 772L310 770ZM284 770L284 772L292 771ZM266 770L266 772L275 771ZM248 770L249 772L257 771ZM211 771L219 772L220 770ZM1384 791L1384 795L1388 801L1403 809L1425 815L1467 820L1529 820L1569 815L1600 805L1608 798L1610 793L1606 785L1592 777L1567 770L1526 765L1518 766L1563 771L1593 779L1607 789L1608 795L1600 803L1574 812L1543 817L1511 819L1465 818L1424 813L1400 806L1386 796L1386 790L1401 779L1430 771L1476 767L1477 765L1445 767L1411 774L1392 782ZM1722 763L1722 765L1725 765ZM1696 753L1696 755L1699 755ZM1301 753L1299 752L1297 754ZM1688 751L1690 753L1690 751ZM1306 752L1310 751L1307 750ZM1680 749L1682 751L1682 749ZM1308 794L1311 803L1318 810L1332 818L1352 825L1408 836L1483 841L1557 839L1617 831L1659 819L1677 809L1685 798L1683 787L1675 779L1651 767L1627 760L1590 753L1536 748L1518 749L1598 756L1652 769L1675 781L1683 790L1683 799L1678 806L1659 817L1614 830L1549 838L1467 839L1413 835L1362 826L1324 812L1318 808L1310 798L1312 788L1320 780L1339 770L1357 764L1410 754L1476 750L1476 748L1411 752L1359 762L1325 775L1312 785ZM1317 748L1315 748L1315 750ZM1671 747L1672 749L1674 748ZM1323 746L1323 748L1326 747ZM1663 745L1664 747L1666 746ZM1330 745L1333 746L1333 744ZM1655 743L1655 745L1657 745L1657 743ZM1338 744L1341 744L1341 742ZM1346 741L1346 743L1348 743L1348 741ZM1638 740L1639 742L1641 741ZM1363 738L1361 740L1363 740ZM1621 738L1624 739L1624 737ZM1371 737L1369 737L1369 739ZM1614 736L1614 738L1616 738L1616 736ZM1377 736L1377 738L1379 738L1379 736ZM1605 735L1606 737L1608 736ZM1387 735L1385 735L1385 737ZM1597 734L1597 736L1600 735ZM1393 734L1393 736L1395 736L1395 734ZM1587 734L1590 735L1591 733ZM1401 733L1401 735L1404 734ZM1578 732L1579 734L1582 733ZM1409 732L1409 734L1411 734L1411 732ZM1569 731L1572 733L1572 731ZM1496 731L1496 741L1491 742L1491 745L1496 755L1498 755L1504 743L1498 741L1498 731ZM1420 732L1418 731L1417 733ZM1560 731L1563 732L1563 730ZM1433 730L1433 732L1436 731ZM1552 730L1555 731L1554 729ZM1544 729L1544 731L1546 731L1546 729ZM1452 729L1449 730L1451 731ZM1444 729L1441 731L1444 731ZM1528 728L1528 730L1530 730L1530 728ZM1519 728L1519 730L1522 730L1522 728ZM1476 728L1473 729L1475 730ZM1465 729L1468 730L1468 728ZM1460 730L1460 728L1457 729ZM1496 713L1496 722L1498 723L1498 713ZM344 713L345 715L353 714ZM326 713L327 715L335 714ZM309 713L310 715L317 714ZM291 713L292 715L300 714ZM238 713L239 715L246 714ZM140 713L149 714L148 712ZM69 712L69 714L77 714L75 712ZM48 712L48 714L59 713ZM29 713L38 714L38 712ZM12 712L12 714L21 713ZM0 712L0 714L3 713ZM677 718L677 712L673 708L664 709L660 715L361 714L661 717L662 720L668 724L673 723ZM1496 696L1496 704L1498 704L1498 696ZM1496 677L1496 687L1498 688L1498 677ZM1496 657L1496 669L1498 669L1498 657ZM1496 636L1496 648L1498 649L1498 636ZM1496 619L1496 628L1498 628L1498 619ZM1480 588L1378 588L1360 593L1338 607L1173 760L1155 766L1053 767L1043 772L1001 821L987 828L832 829L827 822L821 821L814 829L470 828L451 830L814 830L820 837L828 836L832 830L985 830L1001 823L1043 774L1054 768L1158 767L1173 762L1338 609L1362 594L1377 590L1480 590ZM1516 586L1517 588L1520 587ZM1536 584L1534 584L1534 586ZM1496 584L1496 593L1498 594L1498 584ZM1545 582L1541 584L1545 584ZM1564 579L1560 581L1564 581ZM1595 571L1590 573L1595 573ZM1604 568L1600 570L1604 570ZM1498 567L1496 567L1497 577ZM652 566L639 567L636 591L645 591ZM1038 564L1033 569L1033 575L1037 579L1042 580L1047 577L1048 568L1043 564ZM1623 561L1619 563L1621 564ZM1496 551L1496 559L1498 560L1498 551ZM1653 548L1648 550L1650 551ZM1474 545L1479 546L1478 544ZM1465 544L1465 546L1468 546L1468 544ZM1456 544L1456 546L1460 546ZM1450 545L1369 545L1348 551L1334 558L1318 569L1165 710L1153 715L951 715L935 724L902 764L887 771L726 771L721 764L712 765L709 771L406 771L709 772L714 779L721 779L726 772L888 772L903 765L940 722L953 716L1151 717L1163 713L1173 706L1318 571L1335 559L1355 550L1375 546ZM1664 542L1659 544L1659 546ZM1498 532L1496 533L1496 543L1498 543ZM944 531L934 536L929 542L926 549L926 562L931 572L936 576L946 580L958 579L963 577L970 570L962 565L953 569L947 569L941 566L938 561L972 560L972 549L968 540L960 533ZM938 549L946 542L956 543L960 548L959 551L939 551ZM911 534L904 531L895 531L886 537L885 532L873 533L873 597L885 597L886 574L893 579L903 580L909 578L918 570L922 559L922 552L918 541ZM893 543L902 543L909 550L909 561L902 568L894 568L886 561L886 550ZM855 533L840 531L832 536L830 532L818 533L818 597L830 597L831 574L838 579L848 580L856 577L864 569L867 561L867 550L862 539ZM842 542L849 544L855 552L853 563L846 568L835 566L831 560L832 548ZM783 531L772 536L767 542L764 550L764 561L766 567L773 575L780 579L790 580L800 577L808 570L812 561L812 549L802 535L793 531ZM784 543L792 543L800 551L799 562L794 567L784 568L777 562L776 551ZM761 531L753 533L749 538L747 532L736 532L736 579L748 577L748 552L753 546L762 544ZM608 531L597 538L595 548L600 556L617 562L619 566L616 569L610 569L603 563L594 570L602 578L609 580L621 579L630 571L630 559L624 553L612 550L607 545L610 542L616 542L621 546L630 540L620 532ZM495 534L488 541L484 554L485 563L489 571L497 578L503 580L513 579L520 574L522 579L532 579L533 532L522 532L520 536L511 531L503 531ZM504 543L513 543L517 545L521 551L521 560L513 568L501 566L496 558L498 548ZM453 531L444 535L437 542L434 550L434 562L437 569L444 576L455 580L463 580L473 576L478 570L470 565L456 569L451 567L447 561L480 560L480 548L470 534L463 531ZM446 550L448 546L454 542L465 544L469 550ZM327 534L320 541L316 552L317 563L321 571L329 578L335 580L345 579L352 574L354 579L364 579L366 564L365 532L354 532L352 536L343 531L334 531ZM336 543L346 543L352 549L352 562L345 568L337 568L333 566L329 560L329 550ZM289 531L281 534L273 542L270 549L270 562L279 575L286 579L297 580L310 574L314 567L305 563L297 568L288 567L282 559L283 549L290 543L298 543L305 548L314 542L305 533ZM237 531L223 539L218 548L217 559L221 569L228 576L234 579L244 580L255 576L262 569L266 559L266 552L263 543L257 536L247 531ZM237 543L248 544L254 553L252 562L245 568L236 567L230 560L231 548ZM1686 528L1678 533L1680 534L1686 530ZM1696 522L1691 524L1691 526ZM1025 514L1013 514L1012 536L1002 531L994 531L984 536L977 547L976 559L981 571L989 578L1001 580L1012 574L1014 579L1025 578ZM996 543L1005 543L1012 550L1012 561L1005 568L997 568L989 561L989 550ZM727 514L715 514L714 536L705 531L697 531L689 534L681 543L678 554L679 563L683 571L691 578L704 580L714 574L715 579L727 578ZM696 544L707 543L714 549L715 559L709 567L699 568L693 564L690 554ZM587 514L576 514L575 537L569 532L557 531L550 534L544 540L540 548L540 563L545 572L551 577L564 580L575 574L577 579L588 578ZM559 543L568 543L576 551L575 562L568 568L560 568L552 561L552 550ZM178 514L176 577L178 579L214 578L214 566L190 565L190 515ZM417 511L415 512L415 577L428 578L428 512ZM375 511L374 578L386 578L386 512ZM1717 505L1711 509L1710 512ZM1496 493L1496 505L1498 505L1498 493ZM1497 477L1496 486L1498 486ZM1498 466L1496 467L1497 473ZM1649 461L1647 460L1645 464ZM1656 456L1653 456L1652 459ZM1662 450L1658 453L1660 454ZM1496 445L1496 458L1498 458L1498 445ZM1517 441L1520 442L1520 440ZM1479 441L1477 440L1476 443ZM1526 439L1526 441L1529 440ZM1469 439L1468 441L1470 442L1471 440ZM1677 438L1675 438L1674 441ZM1460 438L1460 440L1463 439ZM1536 437L1534 438L1535 440L1537 439ZM1542 436L1543 438L1545 437ZM1444 435L1445 437L1447 436ZM1550 434L1550 436L1553 435ZM1559 431L1558 434L1560 433ZM1429 430L1429 432L1432 432ZM1496 427L1496 437L1498 437L1498 427ZM1425 428L1423 427L1422 429ZM1574 426L1572 427L1573 429ZM1416 425L1418 427L1418 425ZM1579 424L1582 425L1582 423ZM1410 422L1410 424L1412 424L1412 422ZM1588 420L1586 422L1588 422ZM1403 418L1403 421L1405 421ZM1595 417L1593 417L1593 419ZM1395 416L1398 417L1398 415ZM1602 413L1600 413L1600 415ZM240 413L235 418L235 474L238 478L245 479L250 475L250 417L245 413ZM1608 409L1606 409L1606 411ZM1382 406L1382 408L1384 408L1384 406ZM1614 404L1612 405L1613 407ZM1376 401L1377 404L1378 402ZM1709 400L1707 400L1707 404ZM1498 399L1492 413L1496 415L1496 419L1498 419L1499 414L1503 413ZM1370 396L1369 398L1371 399ZM1627 395L1625 395L1625 397ZM1714 391L1712 395L1715 393ZM214 391L209 397L209 438L213 443L219 444L225 437L225 397L220 391ZM1359 386L1358 388L1360 389ZM266 386L261 391L261 439L264 443L271 444L276 439L276 391L273 387ZM1638 385L1636 385L1635 388ZM1353 381L1353 383L1355 383ZM1472 377L1472 379L1474 379L1474 377ZM1520 376L1520 378L1523 378L1523 376ZM1464 375L1464 377L1467 377ZM1348 375L1347 377L1349 378L1350 376ZM1648 374L1646 376L1648 376ZM1528 374L1528 376L1530 376L1530 374ZM1456 374L1459 375L1459 373ZM1535 372L1535 374L1537 374L1537 372ZM1449 370L1451 373L1452 371ZM1544 369L1542 370L1543 372ZM1343 369L1342 371L1344 372L1345 370ZM1444 367L1442 367L1443 370ZM1495 364L1489 368L1488 377L1493 382L1499 383L1505 379L1507 372L1502 365ZM1340 364L1338 364L1338 366ZM1565 360L1563 359L1562 361ZM1658 358L1658 360L1660 360L1660 358ZM1423 357L1423 359L1425 359L1425 357ZM1417 352L1418 355L1419 353ZM1665 351L1663 351L1663 353ZM1328 351L1331 353L1331 351ZM1577 350L1574 352L1576 353ZM1410 348L1413 349L1412 347ZM1669 344L1667 344L1667 346ZM1324 344L1325 346L1327 345ZM1405 342L1405 344L1407 344L1407 342ZM1589 341L1587 340L1586 342ZM1401 336L1399 337L1400 339L1402 338ZM1594 334L1591 336L1593 337ZM1395 330L1394 332L1397 333ZM1599 328L1597 328L1597 331ZM1390 325L1390 327L1393 326ZM1603 322L1601 323L1602 325ZM1313 320L1312 322L1315 323ZM1676 313L1671 317L1670 324L1674 331L1681 331L1688 325L1688 320L1683 313ZM1310 312L1309 314L1311 315ZM1612 308L1609 310L1611 311ZM1686 305L1684 305L1684 308ZM1307 304L1306 306L1308 307L1309 305ZM1376 302L1378 305L1379 303ZM1616 300L1613 302L1615 303ZM1688 296L1686 299L1688 299ZM1306 296L1304 296L1305 299ZM1618 292L1617 295L1619 294ZM1373 290L1372 292L1375 297ZM1301 287L1303 290L1304 288ZM242 286L238 289L215 328L212 341L214 351L224 365L236 371L249 371L259 367L268 358L273 346L273 335L269 324L246 287ZM1622 285L1620 284L1619 287ZM1370 283L1369 285L1371 286ZM1692 279L1690 280L1691 282ZM1300 278L1301 281L1302 279ZM1624 277L1621 278L1623 279ZM1368 276L1367 278L1369 279ZM1694 270L1692 270L1692 273ZM1625 269L1623 270L1624 272ZM1299 269L1298 272L1300 272ZM1368 268L1365 270L1367 271ZM1694 261L1693 265L1695 263ZM1625 261L1624 263L1626 264ZM1298 260L1297 263L1299 263ZM1365 259L1364 262L1367 262ZM1694 252L1693 255L1695 256ZM1627 252L1625 255L1627 255ZM1297 252L1296 254L1298 255L1299 253ZM1366 251L1363 252L1364 254ZM1625 243L1627 247L1627 243ZM1694 242L1693 246L1695 247ZM1366 242L1363 243L1365 244ZM1296 242L1296 247L1298 247L1298 242ZM1234 236L1235 242L1236 237ZM1625 235L1625 237L1627 237L1627 235ZM1364 234L1364 236L1366 236L1366 234ZM1694 233L1693 236L1695 236ZM1297 233L1296 235L1298 236L1299 234ZM200 240L173 263L156 297L153 330L165 366L190 405L196 406L198 372L183 348L178 331L178 311L183 294L202 269L219 259L234 255L261 257L280 266L291 276L303 295L307 309L306 337L287 373L287 402L294 406L318 370L331 337L331 303L320 274L295 246L267 232L236 229ZM1236 227L1234 227L1235 231ZM1692 225L1694 228L1694 225ZM1365 225L1364 227L1366 228L1367 226ZM1299 225L1297 225L1297 228ZM1623 219L1624 222L1625 220ZM1235 218L1236 221L1237 219ZM1691 216L1691 219L1693 219L1693 216ZM1368 216L1366 217L1367 220ZM1300 216L1298 219L1300 219ZM1621 212L1621 214L1623 214L1623 212ZM1371 209L1369 208L1368 211ZM1690 207L1690 210L1692 210ZM1302 208L1299 210L1302 210ZM1620 204L1619 207L1621 207ZM1238 204L1236 205L1236 213ZM1373 200L1371 200L1370 203L1372 203ZM1689 199L1688 201L1690 202ZM1619 198L1617 198L1617 200ZM1304 196L1301 202L1303 202ZM1374 193L1373 195L1375 196L1376 194ZM1614 191L1614 193L1616 193L1616 191ZM1686 188L1685 190L1688 194ZM1377 186L1376 188L1378 189L1379 187ZM1306 186L1305 190L1307 188ZM1490 185L1467 193L1452 205L1439 226L1435 251L1440 271L1446 282L1493 346L1499 349L1550 280L1558 260L1559 239L1551 216L1534 197L1514 187ZM1493 190L1512 192L1532 202L1548 221L1554 240L1553 258L1546 277L1498 342L1449 277L1441 256L1443 230L1452 213L1467 199L1479 193ZM1497 228L1476 258L1474 271L1477 279L1484 286L1498 290L1505 289L1515 282L1520 273L1520 262L1500 229ZM1611 184L1612 187L1613 185ZM1683 180L1683 183L1685 183ZM1382 179L1380 182L1382 182ZM1243 179L1241 179L1241 182ZM1309 178L1307 179L1308 182ZM1682 173L1680 173L1681 176ZM1603 172L1606 174L1606 172ZM1387 172L1385 172L1384 175ZM1245 171L1243 171L1243 174ZM1312 170L1310 171L1311 174ZM1599 165L1601 168L1601 165ZM1392 165L1389 167L1391 168ZM1316 162L1314 162L1314 165ZM1674 159L1675 161L1677 160ZM1594 159L1594 161L1596 161L1596 159ZM1398 159L1396 158L1395 161ZM1161 156L1153 159L1149 165L1150 171L1156 176L1164 174L1167 170L1167 163ZM1320 154L1317 156L1319 157ZM1671 152L1671 154L1673 154L1673 152ZM1589 152L1590 155L1591 153ZM1403 153L1401 152L1400 155ZM1250 152L1249 156L1251 154ZM1583 147L1583 149L1586 149ZM1324 147L1322 146L1321 149ZM1668 145L1669 148L1670 146ZM1577 142L1578 144L1580 143ZM1255 142L1253 142L1253 147ZM1166 140L1164 140L1162 150ZM1329 138L1327 138L1326 141L1328 141ZM1662 137L1665 140L1665 138ZM1572 137L1573 140L1574 138ZM1565 134L1568 135L1567 133ZM1427 132L1424 133L1424 135ZM1259 132L1257 133L1257 137ZM1333 131L1331 133L1333 133ZM1658 130L1658 132L1660 132L1660 130ZM1560 129L1561 132L1562 130ZM1553 126L1553 128L1556 127ZM1726 124L1727 126L1729 125ZM1441 125L1438 125L1438 127ZM1655 123L1653 123L1654 126ZM1547 122L1546 124L1548 125L1549 123ZM1263 122L1261 126L1264 124ZM1448 122L1445 122L1445 124ZM1540 119L1539 122L1541 122ZM1532 117L1531 119L1533 120L1534 118ZM1462 117L1459 118L1461 119ZM1649 116L1648 118L1650 119ZM1526 115L1524 115L1525 118ZM1467 115L1467 117L1470 116ZM1268 116L1266 115L1265 118ZM1516 114L1516 116L1519 115ZM1476 113L1474 114L1475 116L1477 115ZM1509 112L1508 115L1510 115ZM1499 113L1502 114L1502 112ZM1491 112L1491 114L1494 113ZM1485 112L1482 114L1484 115ZM1718 108L1720 112L1721 110ZM1638 104L1637 106L1640 107ZM1632 99L1632 101L1634 101L1634 99ZM1277 98L1275 102L1278 100ZM1363 97L1358 95L1350 96L1346 101L1347 113L1350 111L1359 112L1364 106ZM1626 93L1628 96L1629 94ZM1367 91L1366 94L1368 93ZM1707 90L1709 94L1710 92ZM1283 89L1280 92L1281 94L1284 91ZM1620 88L1622 91L1622 88ZM1374 86L1372 87L1373 89ZM1702 82L1702 85L1704 85ZM1380 82L1378 84L1380 84ZM1289 81L1287 85L1290 83ZM1384 78L1387 79L1387 77ZM1600 74L1601 76L1603 75ZM1296 75L1294 74L1293 77ZM1394 73L1391 74L1393 75ZM1594 69L1593 71L1595 72L1596 70ZM1300 69L1298 69L1298 71ZM1402 69L1400 68L1399 70ZM1689 67L1692 70L1692 68ZM1406 66L1410 65L1407 64ZM1579 62L1580 64L1582 63ZM1306 62L1303 65L1305 65ZM1414 61L1417 62L1417 60ZM1683 58L1682 60L1686 63ZM1571 59L1574 60L1573 58ZM1202 56L1199 61L1202 59ZM1563 56L1566 57L1565 55ZM1430 54L1430 56L1433 55ZM1315 53L1310 57L1311 58ZM1440 51L1437 53L1439 54ZM1548 50L1548 52L1551 51ZM1447 49L1446 52L1448 51ZM1540 48L1540 50L1542 50L1542 48ZM1456 47L1453 49L1455 50ZM1533 46L1532 48L1534 49L1535 47ZM1462 46L1462 48L1464 48L1464 46ZM1209 46L1205 51L1207 51ZM1668 45L1671 48L1671 46ZM1524 45L1524 47L1526 47L1526 45ZM1468 46L1471 47L1471 45ZM1516 44L1516 46L1519 46ZM1475 45L1478 46L1478 44ZM1509 43L1508 46L1510 45ZM1499 44L1502 45L1502 43ZM1491 44L1494 45L1494 43ZM1484 43L1483 45L1485 46L1486 44ZM1661 38L1660 39L1664 42ZM1344 28L1341 29L1341 31L1343 31ZM1642 23L1641 25L1644 27ZM1351 23L1348 26L1351 25ZM1632 18L1636 21L1636 19ZM1361 17L1357 20L1361 19ZM1623 13L1627 15L1625 12ZM1370 12L1366 15L1370 14ZM1237 9L1233 13L1235 13ZM1616 8L1616 10L1619 10ZM1600 1L1603 3L1603 1ZM1246 0L1244 0L1242 4Z"/>
  <path fill="#FFD400" fill-opacity="0.32" fill-rule="evenodd" d="M1532 866L1533 868L1535 867ZM1526 866L1524 868L1526 868ZM1467 866L1468 868L1470 867ZM1461 866L1458 867L1460 868ZM1552 866L1550 865L1549 867ZM1443 865L1444 867L1445 866ZM1568 864L1565 865L1567 866ZM1431 865L1429 864L1428 866ZM1576 863L1574 865L1576 865ZM1423 864L1422 863L1421 865ZM1407 862L1406 863L1408 864L1409 863ZM1393 860L1392 861L1394 862L1395 861ZM1617 859L1616 858L1615 860ZM1377 858L1377 860L1379 860ZM1625 857L1623 857L1623 859ZM1370 857L1369 858L1371 859ZM1633 856L1630 857L1631 858ZM1361 856L1363 858L1364 857ZM1347 853L1348 855L1349 854ZM1651 852L1651 854L1653 853ZM1661 850L1658 851L1660 852ZM1333 850L1332 851L1334 852ZM1324 849L1327 850L1326 848ZM1678 847L1676 846L1675 848ZM1309 844L1308 845L1310 846ZM1290 839L1295 841L1293 839ZM1719 833L1718 832L1716 834ZM1274 832L1275 834L1277 834L1276 832ZM1259 824L1259 826L1261 826ZM1252 819L1251 820L1253 822L1254 821ZM1242 784L1240 784L1240 786ZM1247 778L1245 779L1246 780ZM1252 773L1253 775L1254 774ZM1494 770L1490 773L1488 781L1491 786L1500 788L1506 783L1506 775L1500 770ZM1384 792L1385 797L1391 803L1413 812L1431 816L1469 820L1527 820L1563 816L1593 808L1603 803L1609 796L1608 788L1600 781L1589 776L1561 769L1521 765L1518 766L1558 770L1591 778L1601 783L1608 790L1608 796L1602 802L1579 811L1552 816L1517 819L1461 818L1428 814L1402 807L1392 802L1386 796L1386 790L1393 783L1403 778L1435 770L1460 767L1475 767L1477 766L1476 765L1439 768L1408 775L1391 783L1387 786ZM1722 764L1725 765L1723 763ZM1714 761L1717 762L1715 760ZM1284 758L1281 759L1283 760ZM1292 755L1289 757L1291 757ZM1309 750L1306 751L1308 752ZM1680 749L1682 751L1682 749ZM1309 791L1309 799L1318 810L1335 819L1360 827L1417 837L1494 841L1568 838L1630 828L1648 823L1671 813L1681 805L1685 798L1684 789L1676 780L1665 773L1644 765L1617 758L1588 753L1533 748L1518 749L1592 755L1629 762L1655 770L1671 778L1682 788L1684 792L1683 800L1673 810L1660 817L1640 824L1604 832L1551 838L1465 839L1404 834L1354 824L1322 811L1312 802L1310 798L1311 789L1321 779L1334 772L1357 764L1401 755L1452 750L1475 750L1476 748L1413 752L1363 761L1325 775L1314 783ZM1672 747L1673 749L1674 748ZM1325 746L1323 747L1324 748ZM1663 745L1665 747L1666 746ZM1333 744L1331 744L1331 746ZM1655 743L1657 745L1657 743ZM1341 743L1340 742L1339 744ZM1348 741L1346 742L1347 743ZM1638 740L1639 742L1641 741ZM1363 738L1361 740L1363 740ZM1622 737L1622 739L1624 739ZM1371 737L1369 737L1369 739ZM1614 736L1616 738L1616 736ZM1379 736L1377 736L1377 738ZM1608 735L1606 736L1607 737ZM1387 735L1385 736L1386 737ZM1597 734L1599 736L1599 734ZM1395 734L1393 735L1394 736ZM1588 733L1590 735L1591 734ZM1403 733L1401 734L1402 735ZM1581 732L1579 733L1580 734ZM1411 732L1409 734L1411 734ZM1569 731L1570 733L1572 732ZM1497 731L1496 741L1492 742L1491 745L1498 755L1504 743L1498 741ZM1419 731L1417 733L1419 733ZM1561 730L1561 732L1563 732L1563 730ZM1435 730L1433 731L1434 732ZM1546 729L1544 730L1545 731ZM1444 730L1443 729L1441 731ZM1528 728L1528 730L1530 730L1530 728ZM1519 728L1520 730L1522 730L1522 728ZM1476 728L1474 728L1474 730ZM1466 728L1466 730L1468 730L1468 728ZM1496 713L1496 722L1498 723L1498 713ZM48 712L51 714L58 713ZM30 712L30 714L38 713ZM677 718L677 713L672 708L666 708L663 710L661 715L362 713L423 715L660 716L666 723L672 723ZM1497 696L1496 703L1498 704ZM1498 677L1496 678L1497 688ZM1497 657L1496 668L1498 669ZM1497 619L1496 627L1498 628ZM1496 602L1496 610L1498 611L1498 602ZM1480 588L1379 588L1358 594L1337 608L1191 745L1172 761L1157 766L1057 766L1042 773L1000 822L988 828L832 829L827 822L823 821L818 823L814 829L451 830L814 830L817 835L826 837L832 830L989 829L1001 823L1036 781L1044 773L1051 769L1058 767L1157 767L1174 761L1193 745L1339 608L1350 600L1362 594L1376 590L1388 589L1479 590ZM1536 584L1534 584L1534 586ZM1498 584L1496 585L1497 594ZM1551 583L1555 581L1552 581ZM1564 579L1560 581L1563 581ZM1574 577L1570 579L1573 579ZM1585 575L1583 574L1580 576L1581 577ZM1595 571L1590 573L1594 573ZM1604 568L1601 570L1604 570ZM1498 567L1496 568L1496 576L1498 576ZM652 566L640 566L636 591L645 591ZM1038 564L1034 567L1033 574L1037 579L1044 579L1048 575L1048 568L1043 564ZM1623 561L1620 562L1620 564ZM1498 551L1496 552L1497 560ZM1653 548L1648 550L1649 551ZM1465 545L1468 546L1467 544ZM1456 546L1460 545L1457 544ZM1450 545L1372 545L1351 550L1334 558L1317 570L1172 705L1165 710L1153 715L1079 716L956 714L948 716L939 721L901 765L887 771L726 771L720 764L714 764L709 771L406 771L709 772L714 779L721 779L726 772L887 772L897 769L903 765L930 732L941 721L953 716L1150 717L1166 711L1175 704L1319 570L1338 557L1358 549L1373 546ZM1673 537L1671 537L1670 539ZM1497 532L1496 542L1498 543ZM939 533L932 538L927 546L926 561L929 569L935 575L943 579L957 579L968 573L970 570L962 565L954 569L947 569L942 567L938 561L972 560L972 550L969 542L964 536L957 532L946 531ZM938 549L945 542L954 542L960 547L961 550L939 551ZM909 533L896 531L886 537L884 532L873 533L874 597L885 597L886 574L894 579L901 580L912 576L919 568L922 559L921 548L917 540ZM896 542L904 544L910 552L910 559L908 563L902 568L891 567L885 559L886 549L891 544ZM856 534L848 531L841 531L831 537L829 532L818 533L819 597L830 596L831 574L836 578L846 580L857 576L863 570L867 560L867 551L865 544ZM841 542L851 545L855 552L855 559L853 563L847 568L838 568L832 563L830 557L832 548L836 544ZM780 532L774 535L768 541L764 551L764 561L767 568L773 575L781 579L794 579L804 574L809 568L812 560L812 550L807 540L800 534L792 531ZM783 543L792 543L796 545L800 551L800 560L792 568L784 568L780 566L776 560L776 551L778 547ZM761 531L755 532L748 539L747 532L736 533L736 578L747 578L747 555L749 550L754 545L762 544ZM609 531L603 533L598 537L595 545L596 551L602 557L616 561L619 566L616 569L609 569L604 564L602 564L594 570L599 576L603 578L620 579L628 574L631 567L630 559L625 554L610 549L607 544L613 541L617 542L620 546L630 540L620 532ZM489 540L485 549L485 562L488 569L493 575L501 579L512 579L520 574L521 578L533 578L532 532L522 532L519 536L511 531L503 531L494 535ZM504 543L514 543L519 547L521 551L521 560L519 564L513 568L505 568L501 566L497 561L497 550ZM450 532L444 535L438 541L435 547L435 565L438 570L446 577L452 579L469 578L478 570L470 565L462 569L452 568L446 561L480 560L479 546L476 540L471 535L465 532ZM446 549L453 542L464 543L469 550L447 551ZM321 540L318 545L316 555L318 566L325 575L333 579L344 579L352 574L353 578L365 578L364 532L354 532L352 537L345 532L335 531L329 533ZM339 542L348 544L353 551L353 560L351 564L345 568L336 568L331 564L328 558L330 548L334 544ZM286 532L280 535L274 541L270 550L270 561L274 570L282 577L287 579L301 579L307 576L314 568L305 563L298 568L288 567L282 560L282 551L289 543L298 543L303 548L305 548L314 542L309 536L302 532ZM234 532L225 537L221 542L217 555L218 563L221 569L230 577L235 579L248 579L255 576L263 567L266 557L265 548L259 538L246 531ZM241 542L248 544L254 552L253 561L249 566L245 568L238 568L234 566L229 557L231 548L235 544ZM1686 529L1679 532L1679 534ZM1695 522L1691 525L1692 526L1695 524ZM177 515L177 578L214 578L214 566L190 565L190 515ZM1498 514L1496 515L1496 524L1498 524ZM1024 514L1013 515L1012 537L1005 532L996 531L987 534L979 543L976 557L980 569L986 576L992 579L1004 579L1012 574L1013 578L1025 578ZM999 542L1007 544L1013 552L1013 559L1011 563L1005 568L994 567L990 563L988 558L990 548L994 544ZM726 514L715 515L714 537L707 532L698 531L688 535L681 543L679 548L679 563L683 571L694 579L706 579L714 574L715 578L727 578ZM701 542L708 543L715 552L714 562L707 568L696 567L692 563L690 558L692 548L696 544ZM587 514L576 514L575 537L568 532L559 531L552 533L544 540L540 549L540 562L543 569L551 577L556 579L567 579L575 574L576 578L588 578ZM562 542L570 544L576 551L576 560L568 568L557 567L553 563L551 558L553 548L557 544ZM416 512L416 578L427 578L428 512ZM374 512L374 578L386 578L386 512ZM1717 505L1710 510L1710 512ZM1725 498L1722 500L1722 502ZM1497 493L1496 504L1498 505ZM1497 478L1496 485L1498 486ZM1498 466L1496 467L1497 472ZM1648 460L1645 462L1645 464L1648 462ZM1655 456L1652 458L1653 459ZM1662 451L1660 451L1659 454ZM1497 445L1496 457L1498 458ZM1476 441L1477 443L1479 442ZM1517 441L1520 442L1520 440ZM1528 439L1526 441L1528 441ZM1469 439L1468 441L1470 442L1471 440ZM1677 438L1675 438L1674 441ZM1534 438L1535 440L1537 439ZM1461 438L1460 439L1462 440ZM1542 437L1543 438L1545 436ZM1553 434L1550 435L1551 436ZM1557 433L1558 434L1560 432ZM1439 433L1438 432L1437 434ZM1429 430L1430 432L1432 431ZM1685 429L1680 433L1680 435L1685 431ZM1567 429L1565 431L1567 431ZM1497 427L1496 436L1498 437ZM1424 427L1422 429L1424 429ZM1575 427L1574 426L1572 428ZM1416 425L1418 427L1418 425ZM1582 424L1581 423L1579 425ZM1691 422L1689 425L1691 424ZM1595 417L1593 417L1593 419ZM1697 416L1695 417L1695 419ZM1396 415L1396 417L1398 417L1398 415ZM241 413L238 414L235 418L235 474L237 477L245 479L250 474L250 418L247 414ZM1390 410L1389 412L1391 413ZM1703 408L1701 409L1701 411L1703 410ZM1382 406L1382 408L1384 408L1384 406ZM1614 404L1612 406L1614 406ZM1378 402L1376 403L1377 404ZM1621 400L1619 400L1618 402L1620 402ZM1497 400L1492 413L1494 413L1498 419L1498 415L1503 412ZM1369 397L1371 399L1372 398ZM1625 395L1626 397L1627 396ZM1714 391L1712 395L1715 392ZM1631 391L1629 393L1631 393ZM1365 392L1364 391L1363 393ZM219 391L213 392L209 397L209 438L213 443L217 444L222 442L224 439L224 396ZM1360 387L1358 388L1359 389ZM266 386L261 391L261 439L265 443L270 444L276 439L276 391L273 387ZM1638 386L1636 385L1635 387ZM1355 382L1354 381L1353 383ZM1644 379L1642 379L1641 381L1643 381ZM1472 377L1474 379L1474 377ZM1520 376L1520 378L1523 377ZM1723 375L1722 379L1724 377ZM1464 376L1467 377L1466 375ZM1348 375L1347 376L1349 378L1350 377ZM1530 374L1528 376L1530 376ZM1457 373L1457 375L1459 375L1459 373ZM1537 372L1535 374L1537 374ZM1449 370L1449 372L1451 372L1451 370ZM1544 369L1542 371L1544 371ZM1728 367L1726 368L1726 371ZM1444 368L1443 367L1442 369ZM1551 366L1549 367L1549 369L1551 368ZM1495 364L1490 367L1488 376L1493 382L1498 383L1505 379L1506 370L1502 365ZM1435 364L1437 366L1437 364ZM1338 364L1339 366L1340 365ZM1556 363L1555 364L1557 365L1558 364ZM1565 360L1563 359L1562 361ZM1660 358L1658 360L1660 360ZM1423 357L1425 359L1425 357ZM1569 355L1568 356L1570 357L1571 356ZM1417 352L1417 354L1419 354ZM1665 351L1663 351L1663 353ZM1329 351L1329 353L1331 353ZM1576 350L1574 352L1575 353L1577 351ZM1410 348L1413 349L1412 347ZM1669 344L1667 344L1667 346ZM1324 344L1325 346L1327 345ZM1405 342L1405 344L1407 344ZM1672 336L1671 339L1673 337ZM1321 336L1320 338L1322 339ZM1594 335L1593 334L1592 336ZM1395 331L1396 333L1397 332ZM1316 329L1318 331L1318 329ZM1599 329L1598 328L1597 330ZM1390 325L1390 327L1392 327L1392 325ZM1603 322L1601 324L1603 324ZM1313 320L1312 321L1314 323L1315 322ZM1384 316L1387 321L1388 320ZM1607 315L1605 317L1606 318L1608 317ZM1676 313L1672 316L1670 323L1675 331L1681 331L1686 328L1688 320L1683 313ZM1310 312L1309 314L1311 315ZM1380 309L1380 311L1382 311ZM1610 308L1611 311L1612 309ZM1685 305L1684 308L1686 307ZM1307 304L1306 306L1308 307L1309 306ZM1377 302L1377 304L1379 304ZM1616 300L1614 300L1614 303ZM1688 297L1686 299L1688 299ZM1304 296L1305 299L1306 297ZM1618 292L1617 295L1619 294ZM1690 287L1689 291L1691 288ZM1301 287L1303 290L1303 287ZM242 286L238 289L215 328L213 334L213 347L217 357L224 365L237 371L248 371L257 368L268 358L272 350L273 336L267 321L248 290ZM1622 285L1619 286L1621 287ZM1369 284L1371 286L1371 284ZM1692 279L1690 281L1692 281ZM1301 278L1300 281L1302 280ZM1622 277L1623 279L1624 278ZM1368 276L1367 278L1369 279ZM1692 270L1693 273L1694 271ZM1298 270L1300 272L1300 270ZM1625 269L1623 271L1625 271ZM1366 268L1365 269L1367 271L1368 269ZM1693 262L1694 264L1695 263ZM1626 261L1624 263L1626 263ZM1297 261L1297 263L1299 263L1299 261ZM1365 259L1364 261L1366 262ZM1626 252L1625 254L1627 255ZM1297 252L1296 254L1298 255ZM1364 251L1365 254L1366 252ZM1626 243L1625 246L1627 247ZM1694 242L1693 246L1695 247ZM1364 242L1363 243L1365 244L1366 243ZM1297 242L1296 246L1298 247ZM1625 235L1625 237L1627 237L1627 235ZM1695 234L1693 234L1693 236ZM1366 234L1364 234L1364 236ZM1297 233L1296 235L1298 236ZM202 239L174 262L156 297L153 329L164 364L191 406L195 406L198 399L197 370L182 346L177 324L182 296L192 279L214 261L233 255L261 257L277 264L292 277L307 308L306 338L288 371L288 404L294 406L320 366L330 341L332 311L322 278L296 247L266 232L237 229ZM1626 228L1625 227L1624 229ZM1235 227L1234 230L1236 229ZM1367 226L1365 226L1365 228ZM1693 225L1692 227L1694 228ZM1299 225L1297 226L1298 228ZM1623 219L1624 222L1625 221ZM1692 216L1691 218L1693 219ZM1367 216L1366 219L1368 219ZM1300 216L1298 217L1299 219ZM1622 212L1621 213L1623 214ZM1369 208L1368 210L1370 211ZM1691 207L1690 210L1692 210ZM1301 207L1299 209L1300 210L1302 209ZM1619 205L1621 207L1621 205ZM1237 204L1236 209L1238 207ZM1688 200L1690 202L1690 200ZM1372 200L1371 203L1373 201ZM1617 198L1618 200L1619 199ZM1304 196L1302 198L1302 202ZM1614 191L1616 193L1616 191ZM1686 188L1685 190L1687 191ZM1240 187L1239 190L1241 189ZM1377 186L1376 188L1378 189L1379 187ZM1306 186L1305 189L1307 188ZM1503 185L1482 187L1461 197L1445 214L1439 226L1436 237L1436 257L1439 268L1445 280L1496 349L1500 348L1551 278L1559 253L1557 230L1546 209L1531 195L1519 189ZM1492 190L1513 192L1523 196L1532 202L1547 219L1554 238L1553 260L1545 279L1498 342L1494 339L1450 279L1445 270L1441 257L1441 237L1446 222L1452 213L1470 197L1482 192ZM1497 228L1492 233L1475 261L1474 269L1478 280L1483 285L1491 289L1504 289L1513 284L1517 279L1520 272L1520 262L1501 231ZM1683 180L1683 182L1685 183L1685 181ZM1381 179L1380 181L1382 182ZM1308 179L1307 180L1309 181ZM1243 179L1241 180L1241 182ZM1681 173L1680 174L1682 175ZM1604 172L1604 174L1606 174ZM1387 172L1385 172L1384 174L1385 175ZM1244 171L1243 174L1245 173ZM1313 171L1311 170L1310 173L1312 173ZM1677 166L1678 168L1680 167ZM1599 165L1600 168L1601 166ZM1392 165L1390 166L1390 168ZM1316 162L1314 163L1314 165L1316 164ZM1675 159L1674 160L1676 161L1677 160ZM1594 159L1596 161L1596 159ZM1397 158L1395 160L1397 160ZM1161 157L1153 159L1149 166L1150 171L1157 176L1162 175L1167 169L1167 164ZM1319 154L1318 157L1320 155ZM1671 152L1671 154L1673 154L1673 152ZM1589 152L1588 153L1590 155L1591 154ZM1402 152L1400 153L1401 155L1403 153ZM1250 152L1249 156L1251 153ZM1583 147L1583 149L1585 149L1585 147ZM1408 148L1406 147L1405 149ZM1323 146L1321 148L1322 149L1324 147ZM1668 145L1668 147L1670 147ZM1577 142L1578 144L1580 143ZM1414 142L1412 142L1411 144L1413 144ZM1254 142L1252 145L1253 147L1255 143ZM1329 139L1327 138L1326 141ZM1663 137L1665 140L1665 138ZM1572 137L1572 139L1574 139ZM1566 133L1566 135L1568 135ZM1427 133L1426 132L1424 134ZM1333 131L1331 133L1333 133ZM1658 130L1660 132L1660 130ZM1562 130L1560 131L1561 132ZM1168 129L1167 134L1169 130ZM1434 129L1433 128L1431 130ZM1554 126L1553 127L1555 128L1556 127ZM1440 125L1438 126L1439 127ZM1727 124L1726 125L1728 126ZM1653 123L1653 125L1655 125L1655 123ZM1546 123L1547 125L1549 124ZM1263 123L1261 126L1263 125ZM1447 122L1445 122L1445 124ZM1539 120L1541 122L1541 120ZM1455 119L1452 120L1454 121ZM1172 119L1170 121L1170 124L1172 122ZM1648 117L1650 119L1650 117ZM1531 118L1534 119L1533 117ZM1462 117L1459 118L1461 119ZM1344 118L1342 117L1341 119ZM1723 116L1723 118L1725 119L1725 117ZM1526 116L1525 115L1524 117ZM1467 115L1467 117L1469 117L1469 115ZM1267 115L1265 117L1266 118ZM1516 114L1518 116L1518 114ZM1510 113L1508 113L1508 115ZM1500 112L1500 114L1502 114L1502 112ZM1491 112L1491 114L1494 113ZM1485 113L1484 112L1483 114ZM1643 110L1644 113L1645 111ZM1718 108L1720 112L1721 110ZM1272 107L1270 108L1270 110L1272 109ZM1638 104L1637 105L1639 107L1640 105ZM1713 99L1715 103L1716 102ZM1632 99L1634 101L1634 99ZM1277 98L1275 102L1277 101ZM1362 97L1358 95L1352 95L1347 99L1347 113L1349 111L1358 112L1363 108L1364 102ZM1182 94L1180 96L1180 100ZM1627 93L1626 95L1628 96ZM1367 91L1366 94L1368 93ZM1707 90L1708 93L1710 93ZM1284 90L1282 90L1280 93L1282 93ZM1375 87L1374 86L1372 88ZM1614 83L1614 85L1616 85ZM1702 82L1702 84L1704 85ZM1380 82L1378 83L1379 84ZM1289 82L1287 83L1287 85L1289 84ZM1607 79L1611 81L1608 78ZM1387 77L1385 77L1384 79L1386 79ZM1191 76L1189 77L1188 81ZM1600 74L1602 76L1603 75ZM1295 74L1293 75L1293 77L1295 76ZM1394 73L1392 73L1392 75ZM1402 69L1400 68L1399 70ZM1690 67L1689 68L1692 70ZM1586 66L1588 68L1589 67ZM1579 62L1581 64L1581 62ZM1306 62L1303 64L1304 65ZM1417 60L1414 62L1417 62ZM1682 59L1685 63L1686 62ZM1571 59L1574 60L1573 58ZM1424 57L1422 59L1424 59ZM1202 56L1199 61L1202 59ZM1563 56L1566 57L1565 55ZM1432 54L1430 56L1432 56ZM1315 53L1311 56L1311 58ZM1440 52L1438 52L1438 54ZM1675 51L1675 53L1677 54L1677 52ZM1548 50L1548 52L1550 52L1550 50ZM1540 48L1540 50L1542 50L1542 48ZM1456 48L1454 49L1455 50ZM1462 46L1462 48L1464 48L1464 46ZM1323 46L1319 48L1320 49ZM1209 46L1205 50L1206 51ZM1524 45L1524 47L1526 47L1526 45ZM1471 45L1469 45L1469 47ZM1516 44L1516 46L1519 45ZM1510 44L1508 45L1509 46ZM1475 45L1478 46L1477 44ZM1499 44L1502 45L1502 43ZM1491 44L1494 45L1494 43ZM1485 43L1483 45L1485 46ZM1661 38L1660 39L1664 42L1664 40ZM1214 37L1212 39L1213 41L1215 38ZM1336 34L1333 36L1336 36ZM1652 32L1656 35L1654 32ZM1344 28L1341 31L1344 30ZM1641 24L1644 27L1645 26ZM1351 24L1350 23L1348 26ZM1632 18L1636 21L1634 18ZM1361 18L1360 17L1357 20ZM1624 13L1625 15L1627 15L1626 13ZM1370 12L1366 14L1368 15ZM1237 9L1233 13L1235 13ZM1619 9L1617 8L1616 10ZM1609 5L1611 7L1611 5ZM1600 1L1603 3L1602 1Z"/>
  <path fill="#FFD400" fill-opacity="0.55" fill-rule="evenodd" d="M1524 867L1525 868L1526 867ZM1491 867L1492 868L1494 867ZM1483 867L1484 868L1486 867ZM1549 866L1550 867L1551 866ZM1532 867L1535 867L1534 866ZM1469 867L1468 866L1467 867ZM1568 865L1567 864L1566 865ZM1429 864L1428 865L1429 866L1430 865ZM1615 859L1616 860L1617 859ZM1377 859L1378 860L1379 859ZM1332 851L1333 852L1334 851ZM1699 840L1700 841L1701 840ZM1275 832L1274 833L1276 834ZM1726 830L1725 829L1724 831ZM434 829L435 830L442 829ZM416 829L416 830L424 830L424 829ZM399 830L406 829L399 829ZM267 830L275 829L267 829ZM250 829L251 830L257 829ZM233 830L240 829L233 829ZM215 829L216 830L223 829ZM197 829L198 830L205 829ZM178 829L178 830L186 830L186 829ZM159 830L167 829L159 829ZM140 829L141 830L149 829ZM122 829L130 830L130 829ZM104 830L112 829L104 829ZM84 830L94 829L84 829ZM65 829L66 830L74 829ZM48 829L55 830L55 829ZM30 830L38 829L30 829ZM12 829L20 830L20 829ZM1240 807L1239 808L1240 809L1241 808ZM1237 791L1236 792L1237 793ZM1495 770L1489 775L1489 783L1493 787L1499 788L1505 784L1506 776L1502 771ZM158 771L166 771L160 770ZM140 771L148 771L147 770ZM122 771L130 771L130 770ZM104 771L112 771L112 770ZM86 771L94 771L94 770ZM68 770L68 771L76 771L76 770ZM48 771L58 771L57 770ZM30 770L30 771L38 771ZM12 771L20 771L20 770ZM1385 790L1386 798L1393 804L1404 809L1433 816L1474 820L1521 820L1561 816L1595 807L1604 802L1609 796L1608 788L1603 783L1591 777L1565 770L1534 766L1518 766L1560 770L1586 776L1600 782L1607 788L1609 794L1602 802L1595 806L1562 815L1522 819L1473 819L1432 815L1407 809L1390 801L1385 795L1385 792L1387 788L1396 781L1415 774L1440 769L1470 767L1476 765L1441 768L1412 774L1391 783ZM1292 756L1291 755L1290 757ZM1309 791L1310 801L1317 809L1331 817L1350 824L1369 829L1403 835L1462 840L1552 839L1610 832L1644 824L1665 816L1675 810L1682 803L1685 797L1684 790L1677 781L1660 771L1643 765L1616 758L1593 754L1524 748L1518 749L1545 750L1587 754L1641 765L1658 771L1677 782L1683 789L1684 798L1676 808L1665 815L1641 824L1611 831L1567 837L1537 839L1459 839L1410 835L1383 831L1353 824L1333 817L1320 810L1313 804L1309 796L1312 787L1319 780L1338 770L1356 764L1407 754L1448 750L1476 749L1475 748L1435 750L1400 754L1357 763L1344 767L1324 776L1318 780L1311 787ZM1333 745L1332 744L1331 745ZM1656 743L1655 744L1656 745L1657 744ZM1348 742L1347 741L1346 742ZM1639 740L1638 741L1640 742ZM1622 738L1623 739L1624 738ZM1371 738L1370 737L1369 738ZM1614 736L1615 738L1616 737ZM1379 737L1378 736L1377 737ZM1588 734L1591 734L1590 733ZM1410 732L1409 733L1410 734L1411 733ZM1498 731L1497 731L1497 741L1491 743L1497 755L1503 745L1502 742L1498 741ZM1562 730L1561 731L1562 732L1563 731ZM1435 731L1434 730L1433 731ZM1529 728L1528 729L1529 730L1530 729ZM1519 729L1522 729L1521 728ZM1467 728L1466 729L1467 730L1468 729ZM1498 713L1497 713L1497 723ZM345 713L345 714L352 714L352 713ZM327 713L327 714L334 714L334 713ZM309 714L316 714L316 713ZM292 713L292 714L299 714L299 713ZM274 714L281 714L281 713ZM256 713L256 714L263 714L263 713ZM238 713L238 714L246 714L246 713ZM221 714L228 713L221 713ZM193 713L201 714L201 713ZM176 713L177 714L184 713ZM159 713L165 714L166 713ZM677 717L675 710L672 708L665 709L661 715L402 714L401 713L363 713L362 714L661 716L662 719L667 723L672 723L675 721ZM1497 696L1497 704L1498 704L1498 696ZM1497 677L1497 687L1498 687ZM1497 657L1497 669L1498 668ZM1497 637L1497 648L1498 648L1498 637ZM1497 619L1497 628L1498 628ZM1497 602L1497 611L1498 611L1498 602ZM1480 589L1479 588L1382 588L1361 593L1345 602L1333 612L1174 760L1158 766L1058 766L1047 770L1037 778L1008 814L999 823L985 829L832 829L829 824L826 822L820 822L814 829L451 829L452 830L815 830L816 833L821 837L827 836L831 830L983 830L988 829L1002 822L1039 777L1045 772L1057 767L1155 767L1165 765L1174 761L1183 754L1341 606L1361 594L1380 589ZM1497 584L1497 593L1498 593ZM1554 581L1551 582L1552 583ZM1564 580L1563 579L1561 581ZM1574 577L1572 577L1571 579ZM1584 574L1581 576L1583 576ZM1497 568L1497 576L1498 576L1498 568ZM651 566L640 566L636 591L645 590L651 570ZM1614 566L1612 565L1610 567ZM1039 564L1034 568L1033 573L1036 578L1043 579L1047 576L1048 569L1046 566ZM1497 552L1497 559L1498 559L1498 552ZM1474 545L1475 546L1479 545ZM1465 545L1466 546L1468 545ZM1450 545L1374 545L1349 551L1333 559L1313 574L1170 707L1154 715L1149 716L952 715L939 721L900 766L888 771L726 771L723 766L720 764L713 765L709 771L407 771L709 772L711 776L715 779L722 778L725 772L886 772L894 770L906 762L932 729L942 720L951 716L956 715L1099 716L1100 717L1153 716L1162 713L1178 701L1321 568L1334 559L1351 551L1371 546L1396 546L1397 545L1448 545L1449 546ZM1663 542L1659 545L1661 545ZM1498 533L1497 533L1497 543ZM936 535L930 541L926 553L926 559L930 570L937 576L944 579L956 579L965 575L969 571L967 568L960 565L954 569L946 569L939 564L938 560L939 559L971 560L972 559L971 547L966 538L956 532L943 532ZM938 548L944 542L951 541L956 543L961 550L960 551L939 551ZM910 534L905 532L894 532L886 537L885 533L873 533L873 596L885 596L885 574L886 573L890 577L895 579L905 579L914 574L918 569L921 562L921 549L916 539ZM895 542L900 542L905 544L910 551L909 562L904 567L899 569L891 567L885 560L885 551L887 547ZM857 535L851 532L839 532L831 537L830 533L819 533L818 542L819 596L830 596L830 575L831 574L840 579L849 579L858 575L864 568L867 558L866 548L862 540ZM839 542L846 542L850 544L854 548L856 554L854 562L849 567L844 569L836 567L831 562L830 559L831 549L834 545ZM761 532L754 533L748 539L747 533L736 533L736 578L747 578L747 553L752 546L761 544ZM607 532L602 534L597 539L596 550L601 556L618 562L619 567L617 569L612 570L602 564L594 570L597 574L604 578L619 579L624 577L629 572L631 566L630 560L625 554L609 549L607 547L607 544L611 541L614 541L622 545L629 540L625 535L619 532ZM491 538L485 550L485 561L488 569L495 576L502 579L511 579L518 576L521 573L522 578L533 578L533 533L522 533L520 537L513 532L501 532ZM503 543L506 542L514 543L521 550L522 553L521 561L514 568L510 569L504 568L498 563L496 559L497 549ZM451 532L443 536L437 543L434 552L435 564L440 572L449 578L453 579L468 578L478 570L469 565L463 569L454 569L450 567L446 561L454 559L479 560L480 559L479 546L475 539L469 534L464 532ZM446 551L447 547L451 543L458 541L464 543L469 549L468 551L457 552ZM284 533L279 536L272 545L270 552L270 559L272 566L281 576L289 579L303 578L308 575L314 568L305 563L298 568L287 567L282 561L281 557L282 550L287 544L291 542L299 543L304 548L312 544L313 541L307 535L300 532ZM794 532L788 531L782 532L773 536L769 540L765 548L764 559L766 566L775 576L783 579L797 578L808 569L811 563L812 553L808 542L804 537ZM786 542L795 544L799 548L801 554L800 561L796 566L792 568L781 567L777 563L775 557L777 548L781 544ZM322 539L317 550L317 561L320 569L327 576L334 579L343 579L350 576L353 573L354 578L365 578L365 533L354 533L352 537L345 532L339 531L330 533ZM338 542L347 543L353 550L354 553L353 561L346 568L342 569L336 568L330 563L328 559L328 551L331 546ZM235 532L227 536L222 541L218 550L218 562L222 570L229 576L237 579L250 578L256 575L264 564L265 561L264 546L261 541L251 533L243 531ZM236 543L239 542L247 543L254 551L254 559L252 563L246 568L235 567L229 559L230 549ZM1695 522L1691 525L1693 525ZM1024 515L1013 515L1013 536L1012 537L1004 532L993 532L986 535L980 542L977 549L977 561L980 569L987 576L994 579L1003 579L1008 577L1012 573L1013 578L1025 577L1025 516ZM997 542L1003 542L1008 544L1013 551L1013 560L1011 564L1006 568L1002 569L996 568L989 562L988 559L989 549L992 545ZM727 515L715 515L715 536L714 537L706 532L695 532L686 537L682 542L679 550L679 562L684 572L689 576L696 579L705 579L712 576L714 573L715 578L727 577L726 576L727 575L726 573ZM700 542L705 542L710 544L715 551L714 562L709 567L704 569L696 567L691 562L690 559L691 549L694 545ZM587 515L576 515L576 536L575 537L567 532L556 532L548 536L544 541L540 550L540 561L542 567L550 576L557 579L566 579L575 574L576 578L587 578ZM558 543L561 542L569 543L576 550L577 557L575 563L569 568L565 569L559 568L553 563L551 559L552 549ZM177 515L177 578L214 578L213 566L203 567L189 565L189 515ZM1497 514L1497 524L1498 524L1498 514ZM416 512L416 578L427 578L427 512ZM374 512L374 577L386 578L386 512ZM1497 493L1497 505L1498 504ZM1497 478L1497 486L1498 485ZM1498 467L1497 467L1497 471ZM1498 446L1497 446L1497 458ZM1520 440L1518 442L1520 442ZM1528 439L1526 440L1527 441ZM1461 438L1460 439L1462 440ZM1430 430L1429 431L1431 432ZM1567 429L1565 430L1566 431ZM1498 427L1497 427L1497 437ZM1411 422L1410 423L1412 424ZM1396 415L1397 417L1398 416ZM244 413L239 414L235 419L235 473L241 479L246 478L250 473L250 418L248 415ZM1389 411L1390 413L1391 412ZM1703 408L1701 409L1701 411ZM1709 400L1706 402L1707 403ZM1498 400L1492 412L1497 415L1497 419L1498 414L1503 413L1498 404ZM216 391L210 395L210 439L214 443L220 443L224 439L224 396L222 393ZM267 386L261 392L261 438L265 443L272 443L276 438L276 392L272 387ZM1523 377L1521 376L1520 378ZM1647 374L1647 376L1648 375ZM1530 375L1529 374L1528 376ZM1457 373L1458 375L1459 374ZM1536 372L1535 373L1536 374L1537 373ZM1450 370L1449 371L1451 372ZM1493 365L1489 369L1488 372L1489 377L1494 382L1501 382L1506 376L1506 370L1501 365L1498 364ZM1564 359L1562 361L1564 361ZM1660 358L1658 359L1659 360ZM1423 357L1424 359L1425 358ZM1663 351L1664 353L1665 352ZM1329 351L1330 353L1331 352ZM1583 346L1582 345L1581 347ZM1669 345L1668 344L1667 346ZM1325 344L1324 345L1326 346ZM1405 342L1406 344L1407 343ZM1594 335L1593 334L1592 336ZM1318 329L1316 330L1317 331ZM1599 329L1598 328L1597 330ZM1391 325L1390 326L1391 327L1392 326ZM1682 313L1677 313L1673 315L1670 322L1675 331L1683 330L1687 326L1688 323L1687 318ZM1310 313L1309 314L1311 315ZM1381 309L1380 310L1382 311ZM1686 306L1684 306L1684 308ZM1616 301L1615 300L1614 302ZM1302 287L1301 288L1303 289ZM241 287L227 307L215 329L213 336L213 346L218 358L226 366L235 370L246 371L258 367L267 359L270 354L273 341L272 333L268 323L246 288ZM1693 270L1692 271L1693 273ZM1298 270L1300 272L1300 270ZM1298 261L1297 262L1299 263ZM1694 253L1693 254L1695 255ZM1627 253L1625 254L1626 255ZM1364 251L1365 253L1366 252ZM1627 243L1626 243L1626 247ZM1297 242L1297 246L1298 246ZM1235 236L1234 237L1235 242ZM1625 235L1626 237L1627 236ZM1693 234L1694 236L1695 235ZM199 241L172 265L156 298L153 325L163 362L187 400L195 406L197 371L182 347L177 328L182 295L194 276L218 259L239 254L268 259L294 279L304 296L308 311L307 336L288 371L288 403L293 406L318 369L330 339L331 306L320 275L293 245L265 232L232 230ZM1693 225L1693 228L1694 227ZM1299 226L1298 225L1297 227ZM1368 217L1366 218L1367 219ZM1692 216L1692 219L1693 218ZM1622 212L1621 213L1623 214ZM1370 209L1368 210L1369 211ZM1690 208L1691 210L1692 209ZM1621 205L1619 206L1620 207ZM1237 204L1237 208L1238 206ZM1303 196L1302 202L1304 197ZM1615 191L1614 192L1615 193L1616 192ZM1488 186L1477 189L1463 196L1446 213L1437 234L1436 254L1439 267L1446 281L1496 348L1499 348L1549 281L1557 262L1559 243L1557 231L1550 215L1536 199L1515 188L1507 186ZM1490 190L1510 191L1530 200L1540 209L1548 220L1554 237L1554 257L1546 278L1498 343L1449 278L1443 266L1440 253L1441 235L1444 226L1453 211L1468 198L1478 193ZM1496 229L1476 259L1475 273L1479 281L1485 286L1493 289L1503 289L1511 285L1516 280L1520 271L1520 264L1514 251L1499 229ZM1684 180L1683 181L1684 183L1685 182ZM1604 172L1605 174L1606 173ZM1244 171L1243 172L1244 174ZM1312 170L1310 172L1311 173ZM1600 165L1599 166L1601 167ZM1316 163L1315 162L1314 164ZM1594 159L1596 161L1596 159ZM1161 157L1154 159L1150 163L1150 170L1155 175L1161 175L1166 171L1167 164ZM1672 152L1671 153L1673 154ZM1584 147L1583 148L1585 149ZM1414 143L1413 142L1412 144ZM1420 138L1419 137L1418 139ZM1258 132L1257 136L1259 134ZM1333 131L1331 132L1332 133ZM1659 130L1658 131L1659 132L1660 131ZM1263 123L1261 125L1262 126ZM1539 120L1540 122L1541 121ZM1454 119L1452 120L1453 121ZM1723 117L1724 119L1725 118ZM1469 115L1467 116L1468 117ZM1518 114L1516 115L1517 116ZM1510 113L1508 114L1509 115ZM1502 113L1501 112L1500 114ZM1492 112L1491 113L1493 114ZM1719 108L1718 109L1720 111ZM1272 107L1270 108L1270 110ZM1638 104L1638 106L1640 106ZM1362 97L1353 95L1348 98L1347 112L1350 110L1353 112L1360 111L1363 107ZM1368 92L1366 92L1366 94ZM1707 90L1709 93L1709 91ZM1621 88L1620 89L1622 90ZM1615 83L1614 84L1616 85ZM1607 79L1610 81L1609 79ZM1387 78L1386 77L1385 79ZM1696 75L1698 78L1699 77ZM1306 62L1304 63L1304 65ZM1682 59L1685 63L1686 62ZM1202 57L1199 61L1201 60ZM1549 50L1548 51L1550 52ZM1541 48L1540 49L1542 50ZM1463 46L1462 47L1463 48L1464 47ZM1209 46L1206 49L1206 51ZM1669 45L1668 46L1670 48L1671 47ZM1525 45L1524 46L1526 47ZM1471 46L1470 45L1469 46ZM1517 44L1516 45L1518 46ZM1478 45L1477 44L1476 46ZM1502 44L1501 43L1500 45ZM1494 44L1493 43L1492 45ZM1329 41L1328 40L1327 42ZM1661 39L1662 41L1664 41ZM1336 34L1334 35L1334 37ZM1220 31L1218 32L1218 34ZM1344 29L1341 30L1342 31ZM1641 24L1644 26L1643 24ZM1351 24L1349 24L1348 26ZM1633 18L1632 19L1635 21L1636 20ZM1360 18L1357 20L1359 20ZM1624 13L1627 15L1626 13ZM1370 13L1369 12L1367 14ZM1388 3L1385 5L1387 5ZM1600 1L1603 3L1602 1Z"/>
  <path fill="#FFD400" fill-opacity="0.92" fill-rule="evenodd" d="M1492 772L1489 777L1490 784L1494 787L1501 787L1505 783L1506 779L1504 773L1498 770ZM1385 790L1385 796L1389 801L1408 810L1429 815L1441 816L1442 817L1463 818L1464 819L1481 819L1482 820L1533 819L1534 818L1544 818L1545 817L1565 815L1570 813L1586 810L1602 803L1609 795L1609 791L1605 785L1593 778L1581 774L1564 771L1563 770L1551 769L1550 768L1519 766L1548 768L1549 769L1567 771L1584 775L1595 779L1602 783L1608 789L1609 795L1604 801L1598 805L1574 813L1558 815L1557 816L1551 816L1550 817L1542 817L1541 818L1493 820L1492 819L1452 818L1451 817L1424 814L1398 806L1391 802L1385 795L1386 789L1392 783L1399 779L1414 774L1431 771L1432 770L1443 769L1444 768L1476 766L1462 766L1461 767L1443 768L1442 769L1430 770L1413 774L1395 781L1390 784ZM725 772L724 768L719 764L716 764L712 766L709 771L407 771L709 771L711 776L716 779L721 778L724 775ZM1685 794L1684 790L1680 784L1671 777L1657 770L1635 763L1614 758L1609 758L1608 757L1592 755L1591 754L1584 754L1583 753L1553 751L1552 750L1538 750L1537 749L1519 749L1549 750L1550 751L1562 751L1563 752L1589 754L1590 755L1618 759L1623 761L1635 763L1642 766L1645 766L1659 771L1675 780L1682 787L1684 791L1684 799L1671 812L1654 820L1627 828L1607 831L1606 832L1601 832L1600 833L1595 833L1594 834L1571 836L1570 837L1544 838L1543 839L1519 839L1518 840L1476 840L1475 839L1437 838L1436 837L1425 837L1424 836L1407 835L1406 834L1381 831L1355 825L1330 816L1317 808L1310 800L1310 799L1314 806L1319 810L1334 818L1351 824L1371 829L1385 831L1386 832L1405 834L1406 835L1413 835L1414 836L1421 836L1422 837L1447 838L1448 839L1523 840L1524 839L1547 839L1548 838L1561 838L1562 837L1581 836L1582 835L1608 832L1609 831L1623 829L1643 824L1662 817L1676 809L1682 803ZM1475 749L1440 750L1439 751L1428 751L1427 752L1410 753L1409 754L1403 754L1402 755L1396 755L1379 759L1374 759L1358 763L1330 773L1317 781L1310 789L1309 797L1309 792L1311 788L1320 779L1335 771L1355 764L1385 757L1411 754L1412 753L1442 751L1443 750ZM1497 732L1497 742L1496 743L1492 743L1492 745L1494 747L1497 754L1503 743L1499 743L1497 741ZM668 708L665 709L662 714L659 716L661 716L665 722L670 723L673 722L676 719L676 712L673 709ZM1479 589L1377 589L1362 593L1347 601L1339 607L1181 755L1173 761L1160 766L1061 766L1060 767L1052 768L1043 773L1035 781L1001 822L995 826L986 829L831 829L830 826L825 822L819 823L815 829L452 829L814 829L817 834L820 836L828 835L832 829L987 829L999 824L1013 809L1037 779L1046 771L1052 768L1060 767L1061 766L1160 766L1175 760L1189 748L1334 612L1346 602L1358 595L1368 591L1377 590L1378 589ZM1517 586L1517 587L1519 587L1519 586ZM1542 583L1543 584L1544 583ZM1497 568L1497 576L1497 572L1498 571ZM651 567L640 567L639 579L636 590L645 590L646 583L649 576ZM1037 565L1034 569L1034 575L1039 579L1042 579L1046 577L1048 573L1047 568L1044 565ZM1642 553L1639 555L1642 554ZM1449 545L1377 545L1376 546L1368 546L1350 551L1335 558L1324 565L1309 578L1169 708L1155 715L1151 716L954 715L947 717L937 723L907 760L897 768L889 771L884 771L883 772L879 771L727 771L758 771L759 772L760 771L761 772L884 772L885 771L889 771L901 766L909 758L931 730L940 721L947 717L954 715L1152 716L1161 713L1172 706L1317 571L1337 557L1350 551L1353 551L1364 547L1376 546L1377 545ZM1663 543L1660 544L1660 545ZM937 535L932 539L927 549L927 562L932 572L936 575L946 579L954 579L961 577L966 574L969 570L961 565L955 569L949 570L943 568L938 563L937 560L938 559L971 559L971 548L967 540L960 534L954 532L944 532ZM937 549L942 543L946 541L953 541L960 546L961 551L960 552L938 552ZM911 535L904 532L895 532L885 538L884 537L884 533L874 533L874 596L884 596L884 574L885 573L893 578L903 579L911 576L917 570L920 564L921 552L920 551L920 547L917 541ZM893 542L902 542L904 543L909 548L911 553L910 561L905 567L901 569L894 569L890 567L886 563L884 558L884 553L886 548ZM855 534L849 532L840 532L830 538L829 537L829 533L819 533L819 596L829 596L829 592L830 591L829 574L830 573L838 578L848 579L856 576L863 569L866 561L866 550L861 539ZM838 542L847 542L849 543L854 548L856 552L855 561L850 567L846 569L839 569L832 564L830 560L830 556L829 555L830 554L830 550ZM783 532L775 535L768 542L765 550L765 562L769 570L774 575L780 578L791 579L800 576L807 570L811 561L811 549L807 541L799 534L793 532ZM784 542L794 543L800 549L801 552L801 559L799 563L795 567L791 569L785 569L781 567L776 562L775 559L775 551L779 545ZM761 532L755 533L748 540L747 539L747 533L736 533L736 577L737 578L745 577L746 578L747 577L747 552L753 545L761 544ZM608 532L601 535L598 538L596 543L596 549L600 555L603 557L617 561L620 564L620 566L615 570L610 570L606 568L603 564L596 568L595 571L600 576L609 579L621 578L628 573L630 569L630 561L626 555L616 551L610 550L606 545L610 541L616 541L621 545L629 540L624 535L620 533ZM495 535L489 541L485 552L486 564L490 571L497 577L503 579L513 578L520 573L522 574L522 578L532 578L533 577L532 576L533 575L532 572L532 568L533 567L533 546L532 545L533 533L522 533L522 537L521 538L516 534L511 532L503 532ZM505 542L513 542L519 546L522 552L521 562L515 568L512 569L503 568L496 560L496 551L498 547ZM453 532L447 534L438 542L435 549L435 562L438 569L444 575L454 579L463 579L473 575L477 570L469 565L464 569L460 569L459 570L453 569L447 564L446 560L447 559L480 559L480 552L476 541L471 536L462 532ZM445 550L447 546L454 541L463 542L469 548L468 552L446 552ZM327 535L321 541L317 553L318 563L322 571L329 577L335 579L345 578L352 573L354 574L354 578L356 577L364 578L365 577L365 558L364 557L364 553L365 552L365 544L364 543L365 534L364 533L354 533L354 537L353 538L348 534L343 532L334 532ZM336 542L345 542L349 544L354 551L354 560L347 568L337 569L332 566L328 560L327 557L328 550ZM283 534L274 542L271 549L271 562L275 570L280 575L286 578L290 578L291 579L302 578L310 573L313 568L306 564L304 564L297 569L291 569L287 567L282 562L281 552L282 549L290 542L297 542L304 547L313 543L313 542L308 536L299 532L289 532ZM233 533L226 537L220 545L218 553L219 564L221 568L228 575L234 578L244 579L252 577L263 566L265 559L265 552L263 545L257 537L247 532ZM237 542L245 542L249 544L254 550L255 557L253 562L247 568L244 569L239 569L235 567L229 560L229 550ZM1024 515L1014 515L1013 516L1014 517L1014 526L1013 527L1014 528L1014 536L1012 538L1005 533L994 532L984 537L978 547L977 559L980 568L989 577L995 579L1001 579L1005 578L1013 573L1014 574L1014 578L1015 577L1022 577L1024 578ZM996 542L1005 542L1007 543L1012 548L1014 553L1014 558L1012 563L1008 567L1004 569L997 569L993 567L990 564L987 558L988 550ZM726 515L716 515L716 536L714 538L707 533L697 532L691 534L683 541L680 547L679 560L683 570L691 577L697 579L704 579L715 573L716 574L716 578L726 578ZM699 542L707 542L709 543L714 548L716 553L716 558L714 563L710 567L706 569L699 569L695 567L690 560L690 550L695 544ZM587 515L577 515L576 516L577 517L577 532L575 538L569 533L557 532L550 535L544 541L540 552L540 559L543 568L549 575L558 579L564 579L568 578L576 573L577 574L577 578L587 578ZM560 542L570 543L575 548L577 552L577 558L575 563L571 567L567 569L561 569L556 567L551 560L551 551L553 547L557 543ZM178 515L177 516L177 577L178 578L202 578L203 577L212 577L213 578L214 577L213 576L214 574L213 567L190 567L189 566L189 515ZM416 512L416 577L425 577L426 578L427 577L427 512ZM375 512L375 578L376 577L384 577L385 578L385 514L386 513L385 512ZM1518 441L1519 442L1520 441ZM1397 415L1396 416L1397 417ZM240 414L236 418L236 430L235 431L236 432L236 474L240 478L246 478L249 475L249 417L246 414ZM1703 408L1702 408L1701 411ZM1383 406L1382 407L1383 408L1384 407ZM1497 400L1496 407L1493 411L1493 413L1497 414L1497 418L1497 415L1499 413L1502 413L1498 405ZM214 392L210 396L210 438L213 442L219 443L223 440L224 437L224 421L223 420L224 398L223 395L220 392ZM265 387L262 390L262 439L266 443L271 443L275 439L275 391L272 387ZM1492 366L1489 370L1489 377L1495 382L1502 381L1505 378L1506 374L1505 369L1500 365ZM1664 351L1663 352L1664 353ZM1329 351L1330 353L1330 351ZM1668 344L1667 346L1668 346ZM1676 314L1671 319L1671 325L1675 330L1682 330L1687 325L1687 319L1683 314ZM1688 297L1687 297L1687 299ZM1302 287L1302 289L1303 289ZM241 287L218 323L214 333L213 343L216 354L225 365L236 370L249 370L259 366L264 362L269 355L272 346L272 335L268 324L247 290L244 287ZM1691 279L1691 281L1692 280ZM1694 262L1693 263L1694 264ZM1366 260L1365 260L1365 262ZM1694 253L1694 255L1695 254ZM1626 244L1626 246L1627 246L1626 245L1627 244ZM1694 243L1694 246L1695 246ZM198 242L173 264L157 296L154 332L164 363L191 405L196 405L197 372L182 348L177 330L177 312L182 294L192 278L217 259L235 254L260 256L278 264L292 276L304 295L308 309L307 337L288 376L288 402L294 405L317 370L330 337L330 303L319 274L295 247L267 233L235 230ZM1236 218L1235 220L1236 220ZM1691 208L1690 209L1691 210ZM1301 208L1300 209L1301 210ZM1306 187L1305 189L1306 189ZM1490 186L1475 190L1467 194L1452 206L1441 223L1437 236L1436 251L1441 271L1447 282L1494 346L1499 348L1549 280L1557 260L1558 238L1555 226L1549 214L1533 197L1514 188L1505 186ZM1495 189L1515 192L1533 202L1543 212L1549 221L1555 240L1554 259L1547 277L1498 343L1494 340L1452 283L1443 267L1440 256L1441 234L1444 225L1451 213L1469 197L1483 191ZM1496 229L1477 258L1475 264L1475 271L1478 279L1484 285L1494 289L1501 289L1509 286L1515 281L1519 273L1519 262L1511 247L1499 229ZM1605 172L1604 173L1605 174ZM1391 165L1390 167L1391 167ZM1161 157L1157 159L1154 159L1150 164L1151 171L1156 175L1160 175L1164 173L1166 170L1166 163ZM1672 152L1672 154L1673 153ZM1584 147L1584 149L1585 149ZM1654 123L1653 124L1654 125L1655 124ZM1172 120L1171 120L1170 123L1171 123ZM1362 98L1358 96L1350 97L1347 101L1347 106L1349 109L1347 112L1349 110L1351 111L1359 111L1363 106ZM1708 90L1707 91L1709 93ZM1614 84L1616 85L1616 84ZM1702 83L1703 85L1704 84ZM1386 77L1385 79L1386 79ZM1697 76L1698 78L1698 76ZM1524 46L1525 47L1526 46ZM1500 44L1501 45L1502 44ZM1661 39L1661 40L1664 41ZM1624 13L1626 15L1627 14Z"/>
  <path fill="#FFFFFF" fill-opacity="0.16" fill-rule="evenodd" d="M993 323L984 323L976 326L964 339L963 324L938 325L938 423L964 423L965 365L974 354L981 351L993 351ZM1185 328L1170 322L1154 322L1141 327L1132 336L1131 324L1106 324L1106 462L1131 462L1132 413L1140 420L1152 425L1171 425L1184 420L1200 404L1207 387L1207 361L1200 343ZM1147 348L1166 348L1171 351L1180 362L1182 368L1181 383L1178 389L1166 399L1147 399L1140 395L1133 386L1131 380L1132 364L1135 358ZM1037 322L1020 328L1006 340L996 359L994 372L995 384L1000 399L1016 417L1035 425L1056 425L1072 419L1088 404L1096 384L1096 362L1089 345L1076 331L1068 326L1055 322ZM1041 347L1051 347L1061 352L1068 360L1071 368L1071 379L1067 389L1059 397L1051 400L1040 400L1031 396L1023 387L1020 376L1024 359L1030 352ZM599 330L586 345L579 367L581 391L592 411L603 420L616 425L634 425L649 418L654 412L655 423L680 423L681 325L656 324L654 335L646 327L634 322L617 322ZM625 347L637 347L644 350L652 358L656 368L656 379L653 388L644 397L632 401L617 397L609 389L605 379L605 368L609 358L616 351ZM511 323L492 333L483 343L478 353L474 370L477 393L484 406L502 421L515 425L537 425L545 423L559 415L568 404L549 392L535 401L520 402L509 397L504 392L501 384L571 383L572 367L568 351L561 339L553 331L543 325L533 322ZM501 361L504 355L513 347L530 345L537 348L544 355L547 363L502 364ZM388 287L387 422L471 423L471 397L415 396L415 287ZM813 286L812 423L872 423L888 419L902 411L918 393L927 368L927 341L917 315L902 299L882 289L865 286ZM840 313L873 314L887 321L894 329L901 350L900 366L893 382L882 392L872 396L839 396ZM794 286L768 286L767 335L753 324L747 322L730 322L713 329L699 344L692 362L692 386L699 404L714 419L729 425L747 425L759 420L767 413L768 423L794 423ZM737 347L750 347L758 351L765 359L769 372L768 382L764 390L755 398L745 401L728 396L722 390L718 380L718 368L721 359L727 352Z"/>
  <path fill="#FFFFFF" fill-opacity="0.3" fill-rule="evenodd" d="M993 323L985 323L975 327L967 334L964 339L963 325L938 325L939 423L963 423L964 368L969 358L980 351L993 351ZM1183 327L1168 322L1155 322L1143 326L1132 336L1131 325L1106 325L1106 462L1131 462L1132 412L1139 419L1149 424L1170 425L1185 419L1201 402L1208 379L1207 362L1199 342ZM1155 346L1170 350L1178 358L1182 367L1182 380L1180 386L1173 395L1160 401L1149 400L1141 396L1134 388L1131 380L1131 367L1137 355L1143 350ZM1039 322L1027 325L1019 329L1005 342L996 360L995 381L1001 400L1015 416L1028 423L1036 425L1055 425L1065 422L1076 416L1089 402L1096 383L1096 363L1089 345L1077 332L1062 324L1053 322ZM1040 347L1051 347L1057 349L1067 358L1071 367L1071 381L1068 388L1061 396L1048 401L1043 401L1032 397L1024 389L1020 377L1020 370L1024 359L1031 351ZM598 331L588 342L583 352L579 369L580 386L583 396L594 413L603 420L617 425L633 425L646 420L654 412L656 423L680 423L680 325L657 324L654 335L644 326L632 322L614 323ZM624 347L637 347L644 350L652 358L656 367L656 380L653 388L646 396L634 401L623 400L614 395L608 388L605 380L605 367L609 358L617 350ZM512 323L495 331L482 345L475 364L475 384L477 392L485 407L499 419L516 425L541 424L560 414L567 404L548 392L536 401L519 402L510 398L502 389L501 384L571 383L572 369L570 358L563 342L550 329L531 322ZM501 361L506 352L511 348L518 345L530 345L537 348L543 353L547 363L543 365L502 365ZM812 287L812 422L871 423L892 417L903 410L913 400L919 391L927 367L928 351L926 337L916 314L899 297L878 288ZM840 313L870 313L877 315L886 320L893 327L898 336L901 348L901 362L899 371L891 385L879 394L868 397L839 396ZM388 287L388 423L470 423L471 397L415 396L415 287ZM793 286L768 286L767 335L755 325L745 322L731 322L712 330L698 346L692 363L692 385L700 405L716 420L730 425L746 425L759 420L768 412L769 423L794 423ZM740 346L750 347L757 350L766 360L769 370L768 382L765 389L757 397L747 401L739 401L729 397L720 387L717 376L718 366L722 357L731 349Z"/>
  <path fill="#FFFFFF" fill-opacity="0.55" fill-rule="evenodd" d="M993 323L987 323L977 326L968 333L964 340L963 325L939 325L939 423L963 423L964 367L968 359L975 353L984 350L993 350ZM1184 328L1166 322L1152 323L1142 327L1132 337L1131 325L1106 326L1107 462L1131 462L1132 412L1138 418L1147 423L1155 425L1168 425L1183 420L1199 405L1207 384L1207 363L1200 344ZM1153 346L1159 346L1169 349L1176 355L1182 367L1182 381L1179 388L1172 396L1162 401L1151 401L1145 399L1135 390L1131 381L1131 366L1134 359L1141 351ZM1042 322L1023 327L1015 332L1006 341L997 358L995 368L996 386L1002 401L1014 415L1029 423L1037 425L1053 425L1071 419L1086 406L1095 387L1096 365L1093 354L1088 344L1078 333L1064 325L1050 322ZM1039 347L1052 347L1059 350L1068 359L1071 366L1072 377L1070 385L1060 397L1050 401L1041 401L1030 396L1024 389L1020 379L1020 369L1023 360L1031 351ZM596 333L587 344L580 363L581 389L584 398L591 409L602 419L618 425L632 425L639 423L647 419L655 411L656 423L680 423L680 325L656 325L655 336L645 327L630 322L612 324ZM628 346L638 347L646 351L653 359L656 367L656 381L652 390L645 397L636 401L625 401L616 397L609 390L605 381L605 367L608 359L618 349ZM514 323L504 326L494 332L483 344L475 366L475 382L477 391L483 404L499 419L517 425L540 424L557 416L567 404L548 392L537 401L529 403L518 402L508 397L500 384L571 382L572 373L570 358L562 341L557 335L546 327L529 322ZM500 363L503 356L509 349L514 346L524 344L531 345L539 349L544 354L547 360L546 365L501 365ZM813 287L813 423L869 423L880 421L897 414L915 397L922 384L926 371L927 344L922 326L917 316L904 301L884 290L871 287ZM839 313L872 313L885 319L896 331L901 346L901 364L899 372L893 383L880 394L871 397L840 397L839 396L838 390L839 380L838 372L839 364L838 316L839 315L838 314ZM388 287L388 422L470 423L470 397L416 397L414 395L414 287ZM793 286L768 287L769 326L767 335L754 325L743 322L728 323L714 329L700 343L693 359L692 383L699 403L713 418L726 424L744 425L760 419L768 411L769 423L793 423ZM739 346L747 346L757 350L765 358L769 369L769 379L767 386L759 396L749 401L738 401L730 398L721 389L717 378L717 370L721 358L729 350Z"/>
  <path fill="#FFFFFF" fill-opacity="0.9" fill-rule="evenodd" d="M993 324L984 324L976 327L967 335L964 340L963 339L963 326L962 325L939 325L939 422L963 422L963 370L967 360L973 354L982 350L993 350ZM1182 327L1170 323L1154 323L1141 328L1132 337L1131 325L1107 325L1107 461L1131 461L1132 411L1137 417L1145 422L1157 425L1166 425L1184 419L1191 414L1200 403L1207 383L1206 359L1197 340ZM1152 346L1161 346L1172 351L1179 359L1183 370L1182 382L1178 390L1170 398L1163 401L1158 401L1157 402L1147 400L1140 396L1134 389L1130 377L1130 370L1133 360L1142 350ZM1037 323L1020 329L1007 340L997 359L995 371L996 384L1000 397L1004 404L1013 414L1027 422L1040 425L1057 424L1064 422L1078 414L1088 403L1095 386L1096 366L1094 357L1089 346L1084 339L1076 332L1068 327L1055 323ZM1043 346L1053 347L1062 352L1068 359L1072 369L1072 378L1069 387L1059 398L1051 401L1040 401L1031 397L1023 388L1020 380L1020 368L1024 358L1032 350L1038 347L1042 347ZM599 331L590 340L585 348L580 364L580 383L582 392L592 410L604 420L620 425L630 425L641 422L648 418L655 411L656 422L680 422L680 325L656 325L655 337L646 328L634 323L617 323L610 325ZM626 346L635 346L645 350L654 360L657 371L656 382L650 393L640 400L631 401L630 402L629 401L624 401L617 398L608 389L604 377L604 370L609 357L616 350ZM505 326L496 331L487 339L478 355L475 368L475 380L479 396L488 410L504 421L519 425L532 425L548 421L558 415L567 404L549 393L535 402L517 402L509 398L504 393L500 383L571 382L571 364L567 350L561 340L553 332L543 326L533 323L516 323ZM500 362L504 354L512 347L520 344L528 344L538 348L545 355L548 364L547 365L501 365ZM813 287L813 422L874 422L886 419L898 413L908 405L916 395L922 383L926 369L926 340L920 322L914 312L906 303L895 295L875 288ZM840 312L868 312L879 315L888 321L893 326L899 337L902 350L902 360L899 373L894 382L885 391L878 395L872 397L865 397L864 398L840 398L838 396L838 314ZM389 287L388 422L470 422L470 398L416 398L414 396L414 287ZM793 286L769 287L768 336L753 325L747 323L730 323L713 330L699 345L692 366L693 387L697 399L702 407L715 419L727 424L743 425L758 420L768 411L769 422L793 422ZM738 346L748 346L759 351L766 359L769 367L769 381L764 391L755 399L744 402L737 401L728 397L720 388L717 380L717 368L721 358L730 349Z"/>
  <path fill="#FFFFFF" fill-opacity="1" fill-rule="evenodd" d="M992 324L985 324L975 328L968 334L964 340L962 339L962 325L939 326L939 422L962 422L962 373L963 368L968 358L974 353L981 350L992 350ZM1183 328L1168 323L1155 323L1143 327L1131 337L1130 325L1107 325L1107 461L1131 461L1130 429L1132 411L1140 419L1146 422L1164 425L1184 419L1199 404L1207 381L1206 360L1198 342ZM1151 346L1162 346L1163 347L1166 347L1171 350L1180 360L1182 365L1182 368L1183 369L1183 379L1179 389L1173 396L1164 401L1161 401L1160 402L1153 402L1152 401L1149 401L1141 397L1134 389L1130 379L1130 368L1134 358L1137 354L1143 349ZM1039 323L1027 326L1019 330L1011 336L1005 343L997 360L996 382L999 394L1003 402L1010 411L1025 421L1035 424L1041 424L1042 425L1056 424L1066 421L1076 415L1088 402L1095 384L1096 378L1095 362L1093 355L1086 342L1073 330L1058 324ZM1041 346L1050 346L1051 347L1054 347L1061 351L1069 360L1072 368L1072 380L1071 381L1070 386L1066 392L1061 397L1055 400L1048 401L1047 402L1039 401L1032 398L1022 387L1021 382L1020 381L1020 377L1019 376L1020 366L1025 356L1033 349ZM598 332L587 345L580 366L580 381L582 391L586 401L594 412L609 422L622 425L640 422L646 419L655 410L656 422L679 422L680 326L657 325L655 337L644 327L632 323L614 324ZM625 346L637 346L644 349L653 358L657 369L657 379L656 380L655 386L652 391L643 399L638 401L635 401L634 402L627 402L626 401L623 401L614 396L608 389L604 379L604 369L608 358L616 350L619 348L621 348ZM506 326L490 336L479 353L475 371L476 385L479 395L485 406L502 420L522 425L545 422L559 414L567 405L548 393L536 402L519 403L510 399L503 392L500 383L570 382L571 366L567 351L560 339L550 330L542 326L531 323L518 323ZM500 361L503 355L513 346L518 345L519 344L529 344L537 347L543 352L547 359L548 364L547 365L536 365L535 366L526 366L525 365L509 365L508 366L502 366L500 364ZM814 287L814 422L873 422L888 418L903 409L915 396L920 387L925 372L926 343L921 325L917 317L903 301L896 296L882 290L866 287ZM839 312L870 312L871 313L877 314L886 319L894 327L899 336L901 342L901 346L902 347L902 362L901 363L900 371L893 384L887 390L879 395L873 397L869 397L868 398L839 398L838 397L838 313ZM793 287L769 287L768 336L755 326L745 323L731 323L723 325L712 331L700 344L693 362L693 386L699 402L714 418L725 423L741 425L759 419L769 410L770 422L793 422ZM737 346L749 346L758 350L767 360L769 365L769 369L770 370L769 382L765 390L760 396L751 401L748 401L747 402L740 402L729 398L721 390L717 381L717 367L720 359L728 350ZM389 287L389 422L470 422L470 398L414 397L414 288Z"/>
</svg>