<?xml version="1.0" encoding="UTF-8"?>
<svg xmlns="http://www.w3.org/2000/svg" width="1425" height="355" viewBox="0 0 1425 355" role="img" aria-label="LeadDrop logo">
  <title>LeadDrop logo</title>
  <path d="M 139.0 253.0 L 135.0 255.0 L 132.0 260.0 L 132.0 331.0 L 136.0 336.0 L 144.0 338.0 L 148.0 336.0 L 152.0 330.0 L 152.0 261.0 L 147.0 254.0 Z M 104.0 225.0 L 99.0 231.0 L 99.0 284.0 L 102.0 289.0 L 111.0 291.0 L 115.0 289.0 L 118.0 284.0 L 118.0 232.0 L 114.0 226.0 Z M 174.0 217.0 L 168.0 220.0 L 165.0 227.0 L 165.0 282.0 L 170.0 290.0 L 179.0 291.0 L 185.0 284.0 L 185.0 225.0 L 179.0 218.0 Z M 141.0 91.0 L 136.0 94.0 L 109.0 139.0 L 103.0 155.0 L 103.0 166.0 L 108.0 181.0 L 118.0 192.0 L 132.0 199.0 L 146.0 200.0 L 160.0 196.0 L 176.0 181.0 L 181.0 169.0 L 181.0 153.0 L 175.0 138.0 L 148.0 94.0 Z M 90.0 31.0 L 68.0 46.0 L 51.0 64.0 L 40.0 81.0 L 31.0 103.0 L 27.0 120.0 L 26.0 146.0 L 29.0 163.0 L 40.0 190.0 L 77.0 246.0 L 80.0 246.0 L 84.0 242.0 L 84.0 202.0 L 69.0 180.0 L 62.0 166.0 L 57.0 145.0 L 58.0 121.0 L 63.0 104.0 L 76.0 82.0 L 92.0 67.0 L 106.0 59.0 L 130.0 52.0 L 153.0 52.0 L 173.0 57.0 L 187.0 64.0 L 204.0 78.0 L 216.0 94.0 L 225.0 118.0 L 226.0 149.0 L 216.0 177.0 L 199.0 204.0 L 199.0 240.0 L 206.0 246.0 L 239.0 198.0 L 249.0 179.0 L 256.0 156.0 L 257.0 121.0 L 254.0 106.0 L 246.0 85.0 L 237.0 70.0 L 219.0 49.0 L 202.0 36.0 L 182.0 26.0 L 160.0 20.0 L 131.0 19.0 L 111.0 23.0 Z" fill="#ffcc00" fill-rule="evenodd"/>
  <path d="M 302.00 269.95 L 387.52 269.95 L 387.52 234.52 L 334.29 234.52 L 334.29 70.00 L 302.00 70.00 L 302.00 269.95 Z M 531.73 210.98 C 532.69 205.57 532.91 202.31 532.91 196.90 C 532.91 150.66 504.41 116.54 465.53 116.54 C 427.14 116.54 396.73 151.46 396.73 195.55 C 396.73 239.39 427.58 273.46 467.41 273.46 C 488.84 273.46 505.59 264.54 519.25 246.40 C 524.18 239.39 527.50 233.17 529.63 225.56 L 495.47 225.56 C 487.44 236.38 479.67 240.44 466.71 240.44 C 448.08 240.44 434.43 229.11 430.67 210.98 L 531.73 210.98 Z M 429.71 179.32 C 434.65 159.83 447.38 149.56 466.01 149.56 C 485.30 149.56 498.04 160.13 502.06 179.32 L 429.71 179.32 Z M 685.36 120.05 L 656.61 120.05 L 656.61 140.09 C 645.78 123.60 632.83 116.54 613.98 116.54 C 575.32 116.54 547.52 149.81 547.52 195.55 C 547.52 240.74 575.10 273.46 613.28 273.46 C 631.65 273.46 644.13 266.99 656.61 250.46 L 656.61 269.95 L 685.36 269.95 L 685.36 120.05 Z M 617.25 149.56 C 639.64 149.56 655.69 168.75 655.69 196.10 C 655.69 206.92 651.90 219.35 646.26 226.92 C 639.89 235.88 629.77 240.44 617.73 240.44 C 594.87 240.44 579.11 222.60 579.11 196.35 C 579.11 169.04 594.87 149.56 617.25 149.56 Z M 840.39 70.00 L 809.06 70.00 L 809.06 133.32 C 799.86 121.70 784.80 114.64 768.53 114.64 C 731.79 114.64 703.03 149.81 703.03 194.75 C 703.03 239.39 731.31 273.46 768.53 273.46 C 786.20 273.46 798.94 266.69 811.64 250.46 L 811.64 269.95 L 840.39 269.95 L 840.39 70.00 Z M 772.76 147.65 C 794.70 147.65 811.42 167.69 811.42 194.20 C 811.42 220.15 794.70 240.44 773.50 240.44 C 751.56 240.44 734.62 219.90 734.62 193.10 C 734.62 167.40 751.33 147.65 772.76 147.65 Z M 867.49 269.95 L 908.02 269.95 C 934.42 269.95 950.21 266.99 964.35 258.87 C 991.19 243.70 1006.98 210.68 1006.98 170.40 C 1006.98 132.23 993.32 101.11 969.06 84.37 C 955.37 74.90 934.64 70.00 907.32 70.00 L 867.49 70.00 L 867.49 269.95 Z M 899.78 234.52 L 899.78 105.47 L 906.14 105.47 C 926.87 105.47 937.70 107.62 947.86 113.58 C 964.35 123.31 974.47 144.70 974.47 170.40 C 974.47 194.45 964.79 215.84 949.26 225.56 C 939.61 231.52 926.17 234.52 906.84 234.52 L 899.78 234.52 Z M 1029.15 269.95 L 1060.48 269.95 L 1060.48 186.63 C 1059.78 164.44 1069.64 152.01 1088.49 151.16 L 1088.49 116.54 L 1086.14 116.54 C 1072.73 116.54 1066.11 120.90 1057.86 134.68 L 1057.86 120.05 L 1029.15 120.05 L 1029.15 269.95 Z M 1167.90 116.54 C 1129.98 116.54 1098.87 152.01 1098.87 195.00 C 1098.87 238.29 1129.98 273.46 1168.16 273.46 C 1206.08 273.46 1237.67 238.29 1237.67 196.10 C 1237.67 151.46 1207.26 116.54 1167.90 116.54 Z M 1168.16 149.56 C 1189.11 149.56 1206.08 169.85 1206.08 195.00 C 1206.08 220.15 1189.11 240.44 1168.38 240.44 C 1147.18 240.44 1130.46 220.15 1130.46 194.45 C 1130.46 169.85 1147.40 149.56 1168.16 149.56 Z M 1255.34 320.00 L 1286.67 320.00 L 1286.67 255.87 C 1298.67 268.05 1310.71 273.46 1326.73 273.46 C 1364.43 273.46 1392.00 239.94 1392.00 194.45 C 1392.00 149.30 1364.65 116.54 1327.20 116.54 C 1309.28 116.54 1294.22 123.86 1284.06 137.64 L 1284.06 120.05 L 1255.34 120.05 L 1255.34 320.00 Z M 1322.93 149.56 C 1344.14 149.56 1360.41 169.30 1360.41 195.30 C 1360.41 220.70 1344.14 240.44 1323.41 240.44 C 1301.29 240.44 1284.79 221.00 1284.79 194.75 C 1284.79 169.04 1301.29 149.56 1322.93 149.56 Z" fill="#ffffff" fill-rule="nonzero"/>
</svg>
