<svg xmlns="http://www.w3.org/2000/svg"
viewBox="0 0 1774 887" width="1774" height="887">
  <title>LeadDrop light hero banner</title>
  <desc>Transparent vector hero artwork with LeadDrop branding.</desc>

  <!-- No background rectangle: fully transparent canvas -->

  <g fill="#EAB308" fill-rule="evenodd">
    <g transform="translate(70 105) scale(.58)">
      <path d="
M256 24
C222 88 112 221 112 330
C112 416 177 480 256 480
C335 480 400 416 400 330
C400 221 290 88 256 24
Z
M256 176
C232 220 184 281 184 340
C184 385 216 416 256 416
C296 416 328 385 328 340
C328 281 280 220 256 176
Z
"/>
    </g>
  </g>

  <path d="M 368.83 260.54 L 407.37 260.54 L 407.37 380.88 L 475.02 380.88 L 475.02 410.00 L 368.83 410.00 L 368.83 260.54 Z M 609.75 353.66 L 609.75 363.84 L 525.98 363.84 Q 527.26 376.46 535.08 382.77 Q 542.90 389.08 556.89 389.08 Q 568.20 389.08 580.05 385.72 Q 591.94 382.36 604.46 375.57 L 604.46 403.18 Q 591.74 407.98 579.03 410.45 Q 566.31 412.91 553.59 412.91 Q 523.16 412.91 506.28 397.44 Q 489.44 381.97 489.44 354.04 Q 489.44 326.62 506.00 310.93 Q 522.56 295.20 551.61 295.20 Q 578.03 295.20 593.89 311.12 Q 609.75 327.01 609.75 353.66 Z M 572.91 341.74 Q 572.91 331.52 566.95 325.28 Q 560.99 319.00 551.38 319.00 Q 540.97 319.00 534.47 324.86 Q 527.97 330.72 526.37 341.74 L 572.91 341.74 Z M 687.12 359.55 Q 675.91 359.55 670.24 363.36 Q 664.60 367.14 664.60 374.57 Q 664.60 381.36 669.15 385.24 Q 673.73 389.08 681.84 389.08 Q 691.93 389.08 698.84 381.84 Q 705.76 374.57 705.76 363.65 L 705.76 359.55 L 687.12 359.55 Z M 741.89 346.03 L 741.89 410.00 L 705.76 410.00 L 705.76 393.38 Q 698.56 403.59 689.52 408.27 Q 680.52 412.91 667.61 412.91 Q 650.19 412.91 639.33 402.76 Q 628.47 392.57 628.47 376.37 Q 628.47 356.64 642.02 347.44 Q 655.60 338.22 684.62 338.22 L 705.76 338.22 L 705.76 335.43 Q 705.76 326.91 699.04 322.97 Q 692.34 319.00 678.12 319.00 Q 666.62 319.00 656.69 321.31 Q 646.79 323.61 638.27 328.22 L 638.27 300.90 Q 649.80 298.08 661.40 296.64 Q 673.03 295.20 684.62 295.20 Q 714.96 295.20 728.41 307.15 Q 741.89 319.10 741.89 346.03 Z M 851.50 314.29 L 851.50 254.23 L 887.53 254.23 L 887.53 410.00 L 851.50 410.00 L 851.50 393.79 Q 844.10 403.69 835.16 408.30 Q 826.26 412.91 814.57 412.91 Q 793.84 412.91 780.52 396.45 Q 767.22 379.95 767.22 354.04 Q 767.22 328.13 780.52 311.66 Q 793.84 295.20 814.57 295.20 Q 826.16 295.20 835.13 299.84 Q 844.10 304.49 851.50 314.29 Z M 827.86 386.87 Q 839.39 386.87 845.44 378.48 Q 851.50 370.06 851.50 354.04 Q 851.50 338.03 845.44 329.63 Q 839.39 321.21 827.86 321.21 Q 816.46 321.21 810.40 329.63 Q 804.35 338.03 804.35 354.04 Q 804.35 370.06 810.40 378.48 Q 816.46 386.87 827.86 386.87 Z M 962.11 289.69 L 962.11 380.88 L 975.91 380.88 Q 999.52 380.88 1011.98 369.16 Q 1024.47 357.44 1024.47 335.11 Q 1024.47 312.91 1012.05 301.32 Q 999.65 289.69 975.91 289.69 L 962.11 289.69 Z M 923.58 260.54 L 964.19 260.54 Q 998.24 260.54 1014.90 265.41 Q 1031.55 270.25 1043.47 281.88 Q 1053.97 292.00 1059.07 305.23 Q 1064.19 318.42 1064.19 335.11 Q 1064.19 352.06 1059.07 365.32 Q 1053.97 378.58 1043.47 388.67 Q 1031.46 400.29 1014.64 405.16 Q 997.82 410.00 964.19 410.00 L 923.58 410.00 L 923.58 260.54 Z M 1175.42 328.42 Q 1170.71 326.21 1166.04 325.18 Q 1161.39 324.12 1156.68 324.12 Q 1142.88 324.12 1135.41 333.00 Q 1127.95 341.84 1127.95 358.33 L 1127.95 410.00 L 1092.14 410.00 L 1092.14 297.89 L 1127.95 297.89 L 1127.95 316.31 Q 1134.87 305.29 1143.81 300.26 Q 1152.78 295.20 1165.30 295.20 Q 1167.09 295.20 1169.18 295.36 Q 1171.29 295.49 1175.29 296.00 L 1175.42 328.42 Z M 1246.57 320.82 Q 1234.66 320.82 1228.41 329.38 Q 1222.16 337.93 1222.16 354.04 Q 1222.16 370.15 1228.41 378.74 Q 1234.66 387.29 1246.57 387.29 Q 1258.29 387.29 1264.48 378.74 Q 1270.69 370.15 1270.69 354.04 Q 1270.69 337.93 1264.48 329.38 Q 1258.29 320.82 1246.57 320.82 Z M 1246.57 295.20 Q 1275.49 295.20 1291.77 310.83 Q 1308.04 326.43 1308.04 354.04 Q 1308.04 381.68 1291.77 397.32 Q 1275.49 412.91 1246.57 412.91 Q 1217.55 412.91 1201.18 397.32 Q 1184.81 381.68 1184.81 354.04 Q 1184.81 326.43 1201.18 310.83 Q 1217.55 295.20 1246.57 295.20 Z M 1369.89 393.79 L 1369.89 452.63 L 1334.08 452.63 L 1334.08 297.89 L 1369.89 297.89 L 1369.89 314.29 Q 1377.32 304.49 1386.32 299.84 Q 1395.32 295.20 1407.04 295.20 Q 1427.77 295.20 1441.06 311.66 Q 1454.39 328.13 1454.39 354.04 Q 1454.39 379.95 1441.06 396.45 Q 1427.77 412.91 1407.04 412.91 Q 1395.32 412.91 1386.32 408.27 Q 1377.32 403.59 1369.89 393.79 Z M 1393.72 321.21 Q 1382.22 321.21 1376.04 329.67 Q 1369.89 338.12 1369.89 354.04 Q 1369.89 369.96 1376.04 378.42 Q 1382.22 386.87 1393.72 386.87 Q 1405.22 386.87 1411.27 378.48 Q 1417.36 370.06 1417.36 354.04 Q 1417.36 338.03 1411.27 329.63 Q 1405.22 321.21 1393.72 321.21 Z" fill="#111111"/>
  <path d="M 156.62 477.51 L 170.15 477.51 L 170.15 519.77 L 193.91 519.77 L 193.91 530.00 L 156.62 530.00 L 156.62 477.51 Z M 220.66 498.68 Q 216.48 498.68 214.28 501.68 Q 212.09 504.69 212.09 510.35 Q 212.09 516.00 214.28 519.02 Q 216.48 522.02 220.66 522.02 Q 224.78 522.02 226.95 519.02 Q 229.13 516.00 229.13 510.35 Q 229.13 504.69 226.95 501.68 Q 224.78 498.68 220.66 498.68 Z M 220.66 489.68 Q 230.82 489.68 236.54 495.17 Q 242.25 500.65 242.25 510.35 Q 242.25 520.05 236.54 525.54 Q 230.82 531.02 220.66 531.02 Q 210.47 531.02 204.72 525.54 Q 198.97 520.05 198.97 510.35 Q 198.97 500.65 204.72 495.17 Q 210.47 489.68 220.66 489.68 Z M 283.21 491.85 L 283.21 502.12 Q 280.65 500.37 278.06 499.52 Q 275.47 498.68 272.69 498.68 Q 267.43 498.68 264.49 501.75 Q 261.56 504.82 261.56 510.35 Q 261.56 515.87 264.49 518.95 Q 267.43 522.02 272.69 522.02 Q 275.65 522.02 278.31 521.15 Q 280.96 520.26 283.21 518.54 L 283.21 528.84 Q 280.25 529.93 277.21 530.47 Q 274.18 531.02 271.12 531.02 Q 260.46 531.02 254.44 525.56 Q 248.44 520.09 248.44 510.35 Q 248.44 500.60 254.44 495.15 Q 260.46 489.68 271.12 489.68 Q 274.21 489.68 277.21 490.22 Q 280.22 490.76 283.21 491.85 Z M 311.72 512.28 Q 307.78 512.28 305.79 513.62 Q 303.81 514.95 303.81 517.56 Q 303.81 519.94 305.40 521.30 Q 307.01 522.65 309.86 522.65 Q 313.40 522.65 315.83 520.11 Q 318.26 517.56 318.26 513.72 L 318.26 512.28 L 311.72 512.28 Z M 330.95 507.53 L 330.95 530.00 L 318.26 530.00 L 318.26 524.16 Q 315.73 527.75 312.56 529.39 Q 309.40 531.02 304.86 531.02 Q 298.74 531.02 294.93 527.46 Q 291.12 523.88 291.12 518.19 Q 291.12 511.26 295.88 508.03 Q 300.65 504.79 310.84 504.79 L 318.26 504.79 L 318.26 503.81 Q 318.26 500.82 315.90 499.43 Q 313.55 498.04 308.55 498.04 Q 304.52 498.04 301.03 498.85 Q 297.55 499.66 294.56 501.28 L 294.56 491.68 Q 298.61 490.69 302.68 490.19 Q 306.77 489.68 310.84 489.68 Q 321.49 489.68 326.22 493.88 Q 330.95 498.07 330.95 507.53 Z M 342.66 475.29 L 355.24 475.29 L 355.24 530.00 L 342.66 530.00 L 342.66 475.29 Z M 392.41 475.29 L 404.99 475.29 L 404.99 530.00 L 392.41 530.00 L 392.41 475.29 Z M 456.38 510.21 L 456.38 513.79 L 426.97 513.79 Q 427.42 518.22 430.16 520.44 Q 432.91 522.65 437.82 522.65 Q 441.79 522.65 445.96 521.47 Q 450.13 520.29 454.53 517.91 L 454.53 527.60 Q 450.06 529.29 445.60 530.16 Q 441.13 531.02 436.66 531.02 Q 425.98 531.02 420.05 525.59 Q 414.13 520.16 414.13 510.35 Q 414.13 500.72 419.95 495.20 Q 425.76 489.68 435.97 489.68 Q 445.25 489.68 450.82 495.27 Q 456.38 500.85 456.38 510.21 Z M 443.45 506.03 Q 443.45 502.44 441.35 500.24 Q 439.26 498.04 435.89 498.04 Q 432.23 498.04 429.95 500.10 Q 427.66 502.16 427.10 506.03 L 443.45 506.03 Z M 483.56 512.28 Q 479.62 512.28 477.63 513.62 Q 475.65 514.95 475.65 517.56 Q 475.65 519.94 477.25 521.30 Q 478.86 522.65 481.70 522.65 Q 485.25 522.65 487.68 520.11 Q 490.11 517.56 490.11 513.72 L 490.11 512.28 L 483.56 512.28 Z M 502.80 507.53 L 502.80 530.00 L 490.11 530.00 L 490.11 524.16 Q 487.58 527.75 484.40 529.39 Q 481.24 531.02 476.71 531.02 Q 470.59 531.02 466.77 527.46 Q 462.96 523.88 462.96 518.19 Q 462.96 511.26 467.72 508.03 Q 472.49 504.79 482.68 504.79 L 490.11 504.79 L 490.11 503.81 Q 490.11 500.82 487.74 499.43 Q 485.39 498.04 480.40 498.04 Q 476.36 498.04 472.87 498.85 Q 469.40 499.66 466.40 501.28 L 466.40 491.68 Q 470.45 490.69 474.53 490.19 Q 478.61 489.68 482.68 489.68 Q 493.34 489.68 498.06 493.88 Q 502.80 498.07 502.80 507.53 Z M 541.29 496.38 L 541.29 475.29 L 553.95 475.29 L 553.95 530.00 L 541.29 530.00 L 541.29 524.31 Q 538.69 527.78 535.55 529.40 Q 532.43 531.02 528.32 531.02 Q 521.04 531.02 516.36 525.24 Q 511.69 519.45 511.69 510.35 Q 511.69 501.25 516.36 495.46 Q 521.04 489.68 528.32 489.68 Q 532.39 489.68 535.54 491.31 Q 538.69 492.94 541.29 496.38 Z M 532.99 521.88 Q 537.04 521.88 539.17 518.93 Q 541.29 515.97 541.29 510.35 Q 541.29 504.72 539.17 501.77 Q 537.04 498.81 532.99 498.81 Q 528.98 498.81 526.86 501.77 Q 524.73 504.72 524.73 510.35 Q 524.73 515.97 526.86 518.93 Q 528.98 521.88 532.99 521.88 Z M 596.80 491.85 L 596.80 501.41 Q 592.76 499.73 588.99 498.88 Q 585.24 498.04 581.90 498.04 Q 578.31 498.04 576.56 498.94 Q 574.83 499.84 574.83 501.69 Q 574.83 503.21 576.15 504.02 Q 577.46 504.82 580.87 505.22 L 583.09 505.53 Q 592.76 506.76 596.09 509.57 Q 599.43 512.38 599.43 518.40 Q 599.43 524.69 594.79 527.86 Q 590.15 531.02 580.95 531.02 Q 577.05 531.02 572.87 530.40 Q 568.71 529.79 564.31 528.56 L 564.31 519.00 Q 568.08 520.82 572.03 521.74 Q 575.99 522.65 580.06 522.65 Q 583.76 522.65 585.62 521.64 Q 587.49 520.62 587.49 518.60 Q 587.49 516.92 586.20 516.10 Q 584.92 515.27 581.09 514.81 L 578.87 514.53 Q 570.47 513.47 567.09 510.63 Q 563.72 507.78 563.72 501.98 Q 563.72 495.72 568.00 492.71 Q 572.30 489.68 581.15 489.68 Q 584.64 489.68 588.47 490.21 Q 592.30 490.73 596.80 491.85 Z M 660.75 496.38 L 660.75 475.29 L 673.41 475.29 L 673.41 530.00 L 660.75 530.00 L 660.75 524.31 Q 658.15 527.78 655.02 529.40 Q 651.89 531.02 647.78 531.02 Q 640.50 531.02 635.82 525.24 Q 631.15 519.45 631.15 510.35 Q 631.15 501.25 635.82 495.46 Q 640.50 489.68 647.78 489.68 Q 651.85 489.68 655.00 491.31 Q 658.15 492.94 660.75 496.38 Z M 652.45 521.88 Q 656.50 521.88 658.63 518.93 Q 660.75 515.97 660.75 510.35 Q 660.75 504.72 658.63 501.77 Q 656.50 498.81 652.45 498.81 Q 648.45 498.81 646.32 501.77 Q 644.19 504.72 644.19 510.35 Q 644.19 515.97 646.32 518.93 Q 648.45 521.88 652.45 521.88 Z M 714.76 501.35 Q 713.10 500.57 711.46 500.21 Q 709.83 499.84 708.17 499.84 Q 703.33 499.84 700.70 502.95 Q 698.08 506.06 698.08 511.85 L 698.08 530.00 L 685.51 530.00 L 685.51 490.62 L 698.08 490.62 L 698.08 497.09 Q 700.51 493.22 703.65 491.46 Q 706.80 489.68 711.20 489.68 Q 711.83 489.68 712.56 489.74 Q 713.30 489.78 714.71 489.96 L 714.76 501.35 Z M 739.74 498.68 Q 735.56 498.68 733.37 501.68 Q 731.17 504.69 731.17 510.35 Q 731.17 516.00 733.37 519.02 Q 735.56 522.02 739.74 522.02 Q 743.86 522.02 746.03 519.02 Q 748.22 516.00 748.22 510.35 Q 748.22 504.69 746.03 501.68 Q 743.86 498.68 739.74 498.68 Z M 739.74 489.68 Q 749.90 489.68 755.62 495.17 Q 761.33 500.65 761.33 510.35 Q 761.33 520.05 755.62 525.54 Q 749.90 531.02 739.74 531.02 Q 729.55 531.02 723.80 525.54 Q 718.05 520.05 718.05 510.35 Q 718.05 500.65 723.80 495.17 Q 729.55 489.68 739.74 489.68 Z M 783.06 524.31 L 783.06 544.97 L 770.48 544.97 L 770.48 490.62 L 783.06 490.62 L 783.06 496.38 Q 785.67 492.94 788.83 491.31 Q 791.99 489.68 796.11 489.68 Q 803.38 489.68 808.05 495.46 Q 812.73 501.25 812.73 510.35 Q 812.73 519.45 808.05 525.24 Q 803.38 531.02 796.11 531.02 Q 791.99 531.02 788.83 529.39 Q 785.67 527.75 783.06 524.31 Z M 791.43 498.81 Q 787.39 498.81 785.22 501.79 Q 783.06 504.75 783.06 510.35 Q 783.06 515.94 785.22 518.91 Q 787.39 521.88 791.43 521.88 Q 795.46 521.88 797.59 518.93 Q 799.73 515.97 799.73 510.35 Q 799.73 504.72 797.59 501.77 Q 795.46 498.81 791.43 498.81 Z M 834.59 524.31 L 834.59 544.97 L 822.02 544.97 L 822.02 490.62 L 834.59 490.62 L 834.59 496.38 Q 837.20 492.94 840.37 491.31 Q 843.53 489.68 847.64 489.68 Q 854.92 489.68 859.59 495.46 Q 864.27 501.25 864.27 510.35 Q 864.27 519.45 859.59 525.24 Q 854.92 531.02 847.64 531.02 Q 843.53 531.02 840.37 529.39 Q 837.20 527.75 834.59 524.31 Z M 842.96 498.81 Q 838.93 498.81 836.75 501.79 Q 834.59 504.75 834.59 510.35 Q 834.59 515.94 836.75 518.91 Q 838.93 521.88 842.96 521.88 Q 847.00 521.88 849.13 518.93 Q 851.27 515.97 851.27 510.35 Q 851.27 504.72 849.13 501.77 Q 847.00 498.81 842.96 498.81 Z M 912.85 510.21 L 912.85 513.79 L 883.43 513.79 Q 883.88 518.22 886.63 520.44 Q 889.37 522.65 894.29 522.65 Q 898.26 522.65 902.42 521.47 Q 906.60 520.29 911.00 517.91 L 911.00 527.60 Q 906.53 529.29 902.06 530.16 Q 897.60 531.02 893.13 531.02 Q 882.44 531.02 876.52 525.59 Q 870.60 520.16 870.60 510.35 Q 870.60 500.72 876.41 495.20 Q 882.23 489.68 892.43 489.68 Q 901.72 489.68 907.28 495.27 Q 912.85 500.85 912.85 510.21 Z M 899.92 506.03 Q 899.92 502.44 897.82 500.24 Q 895.73 498.04 892.36 498.04 Q 888.70 498.04 886.42 500.10 Q 884.13 502.16 883.57 506.03 L 899.92 506.03 Z M 949.17 496.38 L 949.17 475.29 L 961.83 475.29 L 961.83 530.00 L 949.17 530.00 L 949.17 524.31 Q 946.58 527.78 943.44 529.40 Q 940.31 531.02 936.20 531.02 Q 928.92 531.02 924.24 525.24 Q 919.58 519.45 919.58 510.35 Q 919.58 501.25 924.24 495.46 Q 928.92 489.68 936.20 489.68 Q 940.28 489.68 943.43 491.31 Q 946.58 492.94 949.17 496.38 Z M 940.87 521.88 Q 944.92 521.88 947.05 518.93 Q 949.17 515.97 949.17 510.35 Q 949.17 504.72 947.05 501.77 Q 944.92 498.81 940.87 498.81 Q 936.87 498.81 934.74 501.77 Q 932.61 504.72 932.61 510.35 Q 932.61 515.97 934.74 518.93 Q 936.87 521.88 940.87 521.88 Z M 1012.73 479.44 L 1012.73 490.62 L 1025.71 490.62 L 1025.71 499.62 L 1012.73 499.62 L 1012.73 516.32 Q 1012.73 519.07 1013.82 520.03 Q 1014.91 521.00 1018.15 521.00 L 1024.62 521.00 L 1024.62 530.00 L 1013.82 530.00 Q 1006.37 530.00 1003.26 526.89 Q 1000.15 523.78 1000.15 516.32 L 1000.15 499.62 L 993.89 499.62 L 993.89 490.62 L 1000.15 490.62 L 1000.15 479.44 L 1012.73 479.44 Z M 1052.14 498.68 Q 1047.96 498.68 1045.76 501.68 Q 1043.57 504.69 1043.57 510.35 Q 1043.57 516.00 1045.76 519.02 Q 1047.96 522.02 1052.14 522.02 Q 1056.26 522.02 1058.43 519.02 Q 1060.61 516.00 1060.61 510.35 Q 1060.61 504.69 1058.43 501.68 Q 1056.26 498.68 1052.14 498.68 Z M 1052.14 489.68 Q 1062.30 489.68 1068.02 495.17 Q 1073.73 500.65 1073.73 510.35 Q 1073.73 520.05 1068.02 525.54 Q 1062.30 531.02 1052.14 531.02 Q 1041.95 531.02 1036.20 525.54 Q 1030.45 520.05 1030.45 510.35 Q 1030.45 500.65 1036.20 495.17 Q 1041.95 489.68 1052.14 489.68 Z M 1102.77 490.62 L 1115.36 490.62 L 1125.94 517.34 L 1134.94 490.62 L 1147.52 490.62 L 1130.96 533.72 Q 1128.47 540.30 1125.14 542.91 Q 1121.83 545.54 1116.38 545.54 L 1109.10 545.54 L 1109.10 537.28 L 1113.04 537.28 Q 1116.23 537.28 1117.69 536.25 Q 1119.15 535.24 1119.96 532.60 L 1120.32 531.51 L 1102.77 490.62 Z M 1173.61 498.68 Q 1169.42 498.68 1167.23 501.68 Q 1165.04 504.69 1165.04 510.35 Q 1165.04 516.00 1167.23 519.02 Q 1169.42 522.02 1173.61 522.02 Q 1177.73 522.02 1179.90 519.02 Q 1182.08 516.00 1182.08 510.35 Q 1182.08 504.69 1179.90 501.68 Q 1177.73 498.68 1173.61 498.68 Z M 1173.61 489.68 Q 1183.77 489.68 1189.48 495.17 Q 1195.20 500.65 1195.20 510.35 Q 1195.20 520.05 1189.48 525.54 Q 1183.77 531.02 1173.61 531.02 Q 1163.42 531.02 1157.67 525.54 Q 1151.92 520.05 1151.92 510.35 Q 1151.92 500.65 1157.67 495.17 Q 1163.42 489.68 1173.61 489.68 Z M 1203.91 514.67 L 1203.91 490.62 L 1216.57 490.62 L 1216.57 494.56 Q 1216.57 497.76 1216.54 502.60 Q 1216.50 507.43 1216.50 509.04 Q 1216.50 513.79 1216.75 515.88 Q 1217.00 517.97 1217.59 518.93 Q 1218.36 520.16 1219.61 520.83 Q 1220.86 521.50 1222.48 521.50 Q 1226.41 521.50 1228.66 518.47 Q 1230.91 515.44 1230.91 510.06 L 1230.91 490.62 L 1243.50 490.62 L 1243.50 530.00 L 1230.91 530.00 L 1230.91 524.31 Q 1228.07 527.75 1224.88 529.39 Q 1221.70 531.02 1217.88 531.02 Q 1211.05 531.02 1207.48 526.84 Q 1203.91 522.65 1203.91 514.67 Z M 1284.85 501.35 Q 1283.20 500.57 1281.55 500.21 Q 1279.92 499.84 1278.27 499.84 Q 1273.42 499.84 1270.80 502.95 Q 1268.18 506.06 1268.18 511.85 L 1268.18 530.00 L 1255.60 530.00 L 1255.60 490.62 L 1268.18 490.62 L 1268.18 497.09 Q 1270.61 493.22 1273.75 491.46 Q 1276.90 489.68 1281.29 489.68 Q 1281.92 489.68 1282.66 489.74 Q 1283.40 489.78 1284.80 489.96 L 1284.85 501.35 Z M 1328.75 524.31 L 1328.75 544.97 L 1316.17 544.97 L 1316.17 490.62 L 1328.75 490.62 L 1328.75 496.38 Q 1331.36 492.94 1334.52 491.31 Q 1337.68 489.68 1341.80 489.68 Q 1349.08 489.68 1353.75 495.46 Q 1358.43 501.25 1358.43 510.35 Q 1358.43 519.45 1353.75 525.24 Q 1349.08 531.02 1341.80 531.02 Q 1337.68 531.02 1334.52 529.39 Q 1331.36 527.75 1328.75 524.31 Z M 1337.12 498.81 Q 1333.08 498.81 1330.91 501.79 Q 1328.75 504.75 1328.75 510.35 Q 1328.75 515.94 1330.91 518.91 Q 1333.08 521.88 1337.12 521.88 Q 1341.16 521.88 1343.29 518.93 Q 1345.42 515.97 1345.42 510.35 Q 1345.42 504.72 1343.29 501.77 Q 1341.16 498.81 1337.12 498.81 Z M 1407.29 506.03 L 1407.29 530.00 L 1394.63 530.00 L 1394.63 526.10 L 1394.63 511.72 Q 1394.63 506.56 1394.41 504.62 Q 1394.18 502.69 1393.62 501.77 Q 1392.88 500.54 1391.61 499.85 Q 1390.35 499.16 1388.73 499.16 Q 1384.79 499.16 1382.54 502.21 Q 1380.29 505.25 1380.29 510.63 L 1380.29 530.00 L 1367.71 530.00 L 1367.71 475.29 L 1380.29 475.29 L 1380.29 496.38 Q 1383.14 492.94 1386.33 491.31 Q 1389.54 489.68 1393.41 489.68 Q 1400.23 489.68 1403.76 493.87 Q 1407.29 498.04 1407.29 506.03 Z M 1437.70 498.68 Q 1433.52 498.68 1431.32 501.68 Q 1429.13 504.69 1429.13 510.35 Q 1429.13 516.00 1431.32 519.02 Q 1433.52 522.02 1437.70 522.02 Q 1441.82 522.02 1443.99 519.02 Q 1446.17 516.00 1446.17 510.35 Q 1446.17 504.69 1443.99 501.68 Q 1441.82 498.68 1437.70 498.68 Z M 1437.70 489.68 Q 1447.86 489.68 1453.58 495.17 Q 1459.29 500.65 1459.29 510.35 Q 1459.29 520.05 1453.58 525.54 Q 1447.86 531.02 1437.70 531.02 Q 1427.51 531.02 1421.76 525.54 Q 1416.01 520.05 1416.01 510.35 Q 1416.01 500.65 1421.76 495.17 Q 1427.51 489.68 1437.70 489.68 Z M 1508.01 506.03 L 1508.01 530.00 L 1495.36 530.00 L 1495.36 526.10 L 1495.36 511.65 Q 1495.36 506.56 1495.13 504.62 Q 1494.91 502.69 1494.34 501.77 Q 1493.60 500.54 1492.33 499.85 Q 1491.07 499.16 1489.45 499.16 Q 1485.51 499.16 1483.26 502.21 Q 1481.01 505.25 1481.01 510.63 L 1481.01 530.00 L 1468.44 530.00 L 1468.44 490.62 L 1481.01 490.62 L 1481.01 496.38 Q 1483.86 492.94 1487.05 491.31 Q 1490.26 489.68 1494.13 489.68 Q 1500.95 489.68 1504.48 493.87 Q 1508.01 498.04 1508.01 506.03 Z M 1558.99 510.21 L 1558.99 513.79 L 1529.57 513.79 Q 1530.02 518.22 1532.77 520.44 Q 1535.51 522.65 1540.43 522.65 Q 1544.40 522.65 1548.56 521.47 Q 1552.73 520.29 1557.13 517.91 L 1557.13 527.60 Q 1552.67 529.29 1548.20 530.16 Q 1543.73 531.02 1539.27 531.02 Q 1528.58 531.02 1522.65 525.59 Q 1516.73 520.16 1516.73 510.35 Q 1516.73 500.72 1522.55 495.20 Q 1528.37 489.68 1538.57 489.68 Q 1547.85 489.68 1553.42 495.27 Q 1558.99 500.85 1558.99 510.21 Z M 1546.05 506.03 Q 1546.05 502.44 1543.96 500.24 Q 1541.87 498.04 1538.49 498.04 Q 1534.84 498.04 1532.55 500.10 Q 1530.27 502.16 1529.71 506.03 L 1546.05 506.03 Z" fill="#EAB308"/>

  <!-- Lower data lines -->
  <g fill="none" stroke="#EAB308" stroke-width="4" stroke-linecap="round" stroke-linejoin="round">
    <path d="M0 690 H420" stroke-dasharray="8 10"/>
    <path d="M420 690 H720"/>
    <path d="M0 748 H470" stroke-dasharray="8 10"/>
    <path d="M470 748 H885 C915 748 933 719 954 695 C975 671 992 675 1023 675 H1223 C1258 675 1281 649 1317 614 C1349 583 1376 552 1420 552 H1475"/>
    <path d="M0 808 H575" stroke-dasharray="8 10"/>
    <path d="M575 808 H1030 C1060 808 1080 782 1104 758 C1127 735 1146 744 1180 744 H1285 C1314 744 1338 717 1365 689 C1395 658 1421 626 1460 626 H1500"/>
  </g>

  <g fill="#EAB308">
    <circle cx="720" cy="690" r="11"/>
    <circle cx="770" cy="748" r="11"/>
    <circle cx="875" cy="808" r="11"/>
  </g>

  <!-- Radar rings -->
  <g fill="none" stroke="#EAB308" stroke-width="4" stroke-linecap="round" stroke-dasharray="1 11">
    <circle cx="1535" cy="245" r="130"/>
    <circle cx="1535" cy="245" r="198"/>
    <circle cx="1535" cy="245" r="266"/>
    <circle cx="1535" cy="245" r="334"/>
  </g>

  <g fill="#EAB308">
    <circle cx="1400" cy="105" r="11"/>
    <circle cx="1200" cy="166" r="11"/>
    <circle cx="1718" cy="320" r="11"/>
    <circle cx="1535" cy="376" r="11"/>
  </g>

  <!-- Pin -->
  <g fill="#EAB308" fill-rule="evenodd">
    <g transform="translate(1442 132) scale(.37)">
      <path d="
M256 28
C173 28 108 94 108 176
C108 260 184 324 256 420
C328 324 404 260 404 176
C404 94 339 28 256 28
Z
M256 92
C307 92 348 132 348 182
C348 234 311 276 256 336
C201 276 164 234 164 182
C164 132 205 92 256 92
Z
"/>
    </g>
    <g transform="translate(1483 186) scale(.15)">
      <path d="
M256 24
C222 88 112 221 112 330
C112 416 177 480 256 480
C335 480 400 416 400 330
C400 221 290 88 256 24
Z
M256 176
C232 220 184 281 184 340
C184 385 216 416 256 416
C296 416 328 385 328 340
C328 281 280 220 256 176
Z
"/>
    </g>
  </g>

  <!-- Vertical drop -->
  <g stroke="#EAB308" fill="none" stroke-width="4" stroke-linecap="round">
    <path d="M1535 390 V758" stroke-dasharray="8 10"/>
  </g>
  <g fill="#EAB308">
    <polygon points="1535,396 1526,414 1544,414"/>
    <polygon points="1535,754 1526,736 1544,736"/>
  </g>

  <!-- Landing target -->
  <g fill="none" stroke="#EAB308" stroke-width="4">
    <ellipse cx="1535" cy="786" rx="180" ry="52" stroke-dasharray="1 11" stroke-linecap="round"/>
    <ellipse cx="1535" cy="786" rx="145" ry="39"/>
    <ellipse cx="1535" cy="786" rx="110" ry="28"/>
  </g>
  <circle cx="1535" cy="786" r="11" fill="#EAB308"/>
</svg>
