<svg xmlns="http://www.w3.org/2000/svg"
  viewBox="0 0 1107 240"
  width="1107"
  height="240"
  role="img"
  aria-labelledby="title desc">
  <title id="title">LeadDrop logo</title>
  <desc id="desc">LeadDrop golden droplet icon with black vector wordmark on a transparent background.</desc>
  <path fill="#EAB308" fill-rule="evenodd" clip-rule="evenodd" d="M 116.500 36.672
C 104.215 59.797, 64.469 107.854, 64.469 147.238
C 64.469 178.312, 87.955 201.438, 116.500 201.438
C 145.045 201.438, 168.531 178.312, 168.531 147.238
C 168.531 107.854, 128.785 59.797, 116.500 36.672
Z
M 116.500 91.594
C 107.828 107.492, 90.484 129.533, 90.484 150.852
C 90.484 167.111, 102.047 178.312, 116.500 178.312
C 130.953 178.312, 142.516 167.111, 142.516 150.852
C 142.516 129.533, 125.172 107.492, 116.500 91.594
Z"/>
  <path fill="#111111" d="M 259.240 61.771
L 288.373 61.771
L 288.373 152.754
L 339.519 152.754
L 339.519 174.767
L 259.240 174.767
L 259.240 61.771
Z
M 441.379 132.170
L 441.379 139.871
L 378.051 139.871
Q 379.020 149.412 384.929 154.183
Q 390.838 158.954 401.421 158.954
Q 409.969 158.954 418.929 156.411
Q 427.914 153.868 437.383 148.734
L 437.383 169.609
Q 427.769 173.242 418.154 175.106
Q 408.540 176.971 398.926 176.971
Q 375.920 176.971 363.158 165.274
Q 350.420 153.577 350.420 132.460
Q 350.420 111.730 362.940 99.864
Q 375.460 87.974 397.425 87.974
Q 417.404 87.974 429.391 100.009
Q 441.379 112.021 441.379 132.170
Z
M 413.529 123.161
Q 413.529 115.436 409.025 110.713
Q 404.520 105.967 397.255 105.967
Q 389.385 105.967 384.469 110.398
Q 379.553 114.830 378.342 123.161
L 413.529 123.161
Z
M 499.878 136.625
Q 491.402 136.625 487.115 139.507
Q 482.853 142.365 482.853 147.983
Q 482.853 153.117 486.292 156.047
Q 489.755 158.954 495.882 158.954
Q 503.510 158.954 508.741 153.480
Q 513.972 147.983 513.972 139.725
L 513.972 136.625
L 499.878 136.625
Z
M 541.289 126.406
L 541.289 174.767
L 513.972 174.767
L 513.972 162.199
Q 508.523 169.924 501.694 173.459
Q 494.889 176.971 485.130 176.971
Q 471.956 176.971 463.746 169.294
Q 455.536 161.593 455.536 149.339
Q 455.536 134.422 465.780 127.471
Q 476.048 120.497 497.989 120.497
L 513.972 120.497
L 513.972 118.390
Q 513.972 111.948 508.886 108.970
Q 503.825 105.967 493.073 105.967
Q 484.379 105.967 476.872 107.710
Q 469.389 109.454 462.947 112.941
L 462.947 92.284
Q 471.665 90.153 480.431 89.063
Q 489.222 87.974 497.989 87.974
Q 520.922 87.974 531.093 97.006
Q 541.289 106.039 541.289 126.406
Z
M 624.153 102.407
L 624.153 57.000
L 651.397 57.000
L 651.397 174.767
L 624.153 174.767
L 624.153 162.513
Q 618.559 169.996 611.803 173.484
Q 605.070 176.971 596.231 176.971
Q 580.563 176.971 570.488 164.523
Q 560.438 152.052 560.438 132.460
Q 560.438 112.869 570.488 100.421
Q 580.563 87.974 596.231 87.974
Q 604.998 87.974 611.778 91.485
Q 618.559 94.996 624.153 102.407
Z
M 606.281 157.283
Q 614.999 157.283 619.576 150.938
Q 624.153 144.569 624.153 132.460
Q 624.153 120.352 619.576 114.007
Q 614.999 107.638 606.281 107.638
Q 597.660 107.638 593.083 114.007
Q 588.506 120.352 588.506 132.460
Q 588.506 144.569 593.083 150.938
Q 597.660 157.283 606.281 157.283
Z
M 707.781 83.808
L 707.781 152.754
L 718.218 152.754
Q 736.066 152.754 745.486 143.891
Q 754.931 135.027 754.931 118.148
Q 754.931 101.366 745.535 92.599
Q 736.163 83.808 718.218 83.808
L 707.781 83.808
Z
M 678.647 61.771
L 709.355 61.771
Q 735.097 61.771 747.690 65.452
Q 760.283 69.108 769.292 77.899
Q 777.235 85.552 781.085 95.553
Q 784.960 105.531 784.960 118.148
Q 784.960 130.959 781.085 140.985
Q 777.235 151.010 769.292 158.639
Q 760.210 167.429 747.496 171.110
Q 734.782 174.767 709.355 174.767
L 678.647 174.767
L 678.647 61.771
Z
M 869.054 113.087
Q 865.494 111.416 861.958 110.641
Q 858.446 109.841 854.887 109.841
Q 844.449 109.841 838.807 116.550
Q 833.164 123.233 833.164 135.705
L 833.164 174.767
L 806.089 174.767
L 806.089 90.008
L 833.164 90.008
L 833.164 103.933
Q 838.395 95.602 845.151 91.800
Q 851.932 87.974 861.401 87.974
Q 862.757 87.974 864.331 88.095
Q 865.930 88.191 868.957 88.579
L 869.054 113.087
Z
M 922.845 107.347
Q 913.837 107.347 909.114 113.813
Q 904.392 120.279 904.392 132.460
Q 904.392 144.641 909.114 151.131
Q 913.837 157.597 922.845 157.597
Q 931.709 157.597 936.383 151.131
Q 941.081 144.641 941.081 132.460
Q 941.081 120.279 936.383 113.813
Q 931.709 107.347 922.845 107.347
Z
M 922.845 87.974
Q 944.713 87.974 957.016 99.791
Q 969.318 111.585 969.318 132.460
Q 969.318 153.359 957.016 165.177
Q 944.713 176.971 922.845 176.971
Q 900.905 176.971 888.530 165.177
Q 876.155 153.359 876.155 132.460
Q 876.155 111.585 888.530 99.791
Q 900.905 87.974 922.845 87.974
Z
M 1016.078 162.513
L 1016.078 207.000
L 989.003 207.000
L 989.003 90.008
L 1016.078 90.008
L 1016.078 102.407
Q 1021.696 94.996 1028.501 91.485
Q 1035.306 87.974 1044.170 87.974
Q 1059.838 87.974 1069.888 100.421
Q 1079.962 112.869 1079.962 132.460
Q 1079.962 152.052 1069.888 164.523
Q 1059.838 176.971 1044.170 176.971
Q 1035.306 176.971 1028.501 173.459
Q 1021.696 169.924 1016.078 162.513
Z
M 1034.095 107.638
Q 1025.401 107.638 1020.728 114.031
Q 1016.078 120.424 1016.078 132.460
Q 1016.078 144.496 1020.728 150.889
Q 1025.401 157.283 1034.095 157.283
Q 1042.789 157.283 1047.366 150.938
Q 1051.967 144.569 1051.967 132.460
Q 1051.967 120.352 1047.366 114.007
Q 1042.789 107.638 1034.095 107.638
Z"/>
</svg>
