<svg xmlns="http://www.w3.org/2000/svg"
    viewBox="0 0 2048 512"
    width="2048"
    height="512"
    role="img"
    aria-labelledby="title desc">
  <title id="title">LeadDrop logo</title>
  <desc id="desc">Golden yellow LeadDrop teardrop icon with black LeadDrop wordmark on a transparent background.</desc>

  <!-- Transparent background: no background rectangle -->

  <g transform="translate(40,-2) scale(0.90)"
     fill="#EAB308"
     fill-rule="evenodd"
     clip-rule="evenodd">
    <path d="
M256 24
C222 88 112 221 112 330
C112 416 177 480 256 480
C335 480 400 416 400 330
C400 221 290 88 256 24
Z
M256 176
C232 220 184 281 184 340
C184 385 216 416 256 416
C296 416 328 385 328 340
C328 281 280 220 256 176
Z
"/>
  </g>

  <path d="M 528.94 162.35 L 588.15 162.35 L 588.15 347.26 L 692.10 347.26 L 692.10 392.00 L 528.94 392.00 L 528.94 162.35 Z M 899.12 305.42 L 899.12 321.08 L 770.41 321.08 Q 772.38 340.47 784.39 350.16 Q 796.40 359.86 817.91 359.86 Q 835.28 359.86 853.50 354.69 Q 871.76 349.52 891.00 339.09 L 891.00 381.52 Q 871.46 388.90 851.92 392.69 Q 832.38 396.48 812.84 396.48 Q 766.08 396.48 740.14 372.71 Q 714.26 348.93 714.26 306.01 Q 714.26 263.88 739.70 239.77 Q 765.15 215.60 809.79 215.60 Q 850.39 215.60 874.76 240.06 Q 899.12 264.47 899.12 305.42 Z M 842.52 287.11 Q 842.52 271.41 833.36 261.82 Q 824.21 252.17 809.44 252.17 Q 793.45 252.17 783.46 261.18 Q 773.47 270.18 771.00 287.11 L 842.52 287.11 Z M 1018.02 314.48 Q 1000.79 314.48 992.08 320.34 Q 983.41 326.15 983.41 337.56 Q 983.41 348.00 990.40 353.95 Q 997.44 359.86 1009.89 359.86 Q 1025.40 359.86 1036.03 348.74 Q 1046.66 337.56 1046.66 320.78 L 1046.66 314.48 L 1018.02 314.48 Z M 1102.18 293.71 L 1102.18 392.00 L 1046.66 392.00 L 1046.66 366.46 Q 1035.59 382.16 1021.71 389.34 Q 1007.88 396.48 988.04 396.48 Q 961.27 396.48 944.58 380.88 Q 927.90 365.23 927.90 340.32 Q 927.90 310.00 948.72 295.88 Q 969.58 281.70 1014.18 281.70 L 1046.66 281.70 L 1046.66 277.42 Q 1046.66 264.33 1036.32 258.27 Q 1026.04 252.17 1004.18 252.17 Q 986.52 252.17 971.26 255.71 Q 956.05 259.26 942.96 266.34 L 942.96 224.36 Q 960.68 220.03 978.49 217.81 Q 996.36 215.60 1014.18 215.60 Q 1060.79 215.60 1081.46 233.96 Q 1102.18 252.32 1102.18 293.71 Z M 1270.59 244.93 L 1270.59 152.65 L 1325.96 152.65 L 1325.96 392.00 L 1270.59 392.00 L 1270.59 367.10 Q 1259.22 382.30 1245.49 389.39 Q 1231.81 396.48 1213.84 396.48 Q 1182.00 396.48 1161.52 371.18 Q 1141.10 345.83 1141.10 306.01 Q 1141.10 266.20 1161.52 240.90 Q 1182.00 215.60 1213.84 215.60 Q 1231.66 215.60 1245.44 222.74 Q 1259.22 229.87 1270.59 244.93 Z M 1234.27 356.46 Q 1251.99 356.46 1261.29 343.57 Q 1270.59 330.62 1270.59 306.01 Q 1270.59 281.41 1261.29 268.51 Q 1251.99 255.57 1234.27 255.57 Q 1216.75 255.57 1207.45 268.51 Q 1198.14 281.41 1198.14 306.01 Q 1198.14 330.62 1207.45 343.57 Q 1216.75 356.46 1234.27 356.46 Z M 1440.56 207.13 L 1440.56 347.26 L 1461.77 347.26 Q 1498.05 347.26 1517.19 329.25 Q 1536.39 311.23 1536.39 276.93 Q 1536.39 242.82 1517.29 225.00 Q 1498.24 207.13 1461.77 207.13 L 1440.56 207.13 Z M 1381.35 162.35 L 1443.76 162.35 Q 1496.08 162.35 1521.67 169.83 Q 1547.26 177.26 1565.57 195.12 Q 1581.72 210.68 1589.54 231.01 Q 1597.42 251.28 1597.42 276.93 Q 1597.42 302.96 1589.54 323.34 Q 1581.72 343.72 1565.57 359.22 Q 1547.12 377.09 1521.28 384.57 Q 1495.44 392.00 1443.76 392.00 L 1381.35 392.00 L 1381.35 162.35 Z M 1768.33 266.64 Q 1761.10 263.24 1753.91 261.67 Q 1746.77 260.04 1739.54 260.04 Q 1718.32 260.04 1706.86 273.68 Q 1695.39 287.26 1695.39 312.61 L 1695.39 392.00 L 1640.36 392.00 L 1640.36 219.73 L 1695.39 219.73 L 1695.39 248.04 Q 1706.02 231.10 1719.75 223.38 Q 1733.53 215.60 1752.78 215.60 Q 1755.53 215.60 1758.73 215.85 Q 1761.98 216.04 1768.13 216.83 L 1768.33 266.64 Z M 1877.66 254.97 Q 1859.35 254.97 1849.75 268.12 Q 1840.15 281.26 1840.15 306.01 Q 1840.15 330.77 1849.75 343.96 Q 1859.35 357.10 1877.66 357.10 Q 1895.67 357.10 1905.17 343.96 Q 1914.72 330.77 1914.72 306.01 Q 1914.72 281.26 1905.17 268.12 Q 1895.67 254.97 1877.66 254.97 Z M 1877.66 215.60 Q 1922.10 215.60 1947.11 239.62 Q 1972.11 263.59 1972.11 306.01 Q 1972.11 348.49 1947.11 372.51 Q 1922.10 396.48 1877.66 396.48 Q 1833.07 396.48 1807.91 372.51 Q 1782.76 348.49 1782.76 306.01 Q 1782.76 263.59 1807.91 239.62 Q 1833.07 215.60 1877.66 215.60 Z M 2067.14 367.10 L 2067.14 457.51 L 2012.12 457.51 L 2012.12 219.73 L 2067.14 219.73 L 2067.14 244.93 Q 2078.56 229.87 2092.39 222.74 Q 2106.22 215.60 2124.24 215.60 Q 2156.08 215.60 2176.51 240.90 Q 2196.98 266.20 2196.98 306.01 Q 2196.98 345.83 2176.51 371.18 Q 2156.08 396.48 2124.24 396.48 Q 2106.22 396.48 2092.39 389.34 Q 2078.56 382.16 2067.14 367.10 Z M 2103.76 255.57 Q 2086.09 255.57 2076.59 268.56 Q 2067.14 281.55 2067.14 306.01 Q 2067.14 330.48 2076.59 343.47 Q 2086.09 356.46 2103.76 356.46 Q 2121.43 356.46 2130.73 343.57 Q 2140.09 330.62 2140.09 306.01 Q 2140.09 281.41 2130.73 268.51 Q 2121.43 255.57 2103.76 255.57 Z" fill="#000000"/>
</svg>
